<svg width="523" height="56" viewBox="0 0 523 56" fill="none" xmlns="http://www.w3.org/2000/svg">
<path d="M74.5997 0H80.1669L80.7236 0.556721V21.1554L85.1774 17.2583L89.6311 14.4747L91.3013 13.918H96.8685L101.322 16.1449L104.106 19.4852L105.776 23.3823L106.333 30.6196V54.5586H96.3118L95.7551 35.6301L95.1983 27.2793L94.0849 23.3823L91.858 22.2688H87.4043L82.9505 25.6092L81.2803 29.5062L80.7236 55.1153L71.2594 54.5586L70.7026 54.0019V0.556721L74.5997 0Z" fill="#D5C9EF"/>
<path d="M297.845 2.78357H319.001V41.754L316.774 47.8779L313.99 51.2183L308.423 54.0019L306.753 54.5586H296.175L290.608 52.3317L286.711 48.4347L283.927 42.3107V40.0839L289.494 38.9704L294.505 38.4137L296.732 43.4242L297.845 45.0943L303.412 45.6511L306.196 43.9809L307.31 42.3107L307.866 38.4137V11.6911L297.845 11.1344V2.78357Z" fill="#090708"/>
<path d="M233.266 13.918H237.72L244.958 16.1449L250.525 21.1553L251.638 24.4957L249.411 25.6091H242.174L238.834 22.8255L231.04 21.7121H228.256V25.6091L228.813 27.2793L238.834 30.0629L244.401 31.733L249.411 35.0734L251.638 38.4137L252.195 40.6406V45.0943L249.411 50.6615L245.514 54.0019L240.504 55.672H232.153L223.245 53.4451L219.905 51.2183L218.235 48.4347L217.678 43.9809L218.235 42.8674L223.245 43.4242L226.586 45.0943L228.813 46.7645L233.823 47.8779H238.277L241.617 46.2078L242.731 42.8674L242.174 41.1973L226.029 36.7435L222.689 35.0734L219.905 32.2898L218.792 30.0629V22.2688L221.019 18.9285L226.029 15.5881L229.369 14.4747L233.266 13.918Z" fill="#D5C9EF"/>
<path d="M430.345 13.918H440.922L447.046 16.1449L450.386 18.9285L452.613 22.2688V24.4957L450.386 25.0524H443.706L441.479 22.2688L439.809 21.7121H431.458L429.231 23.9389L430.345 27.2793L446.489 31.733L449.83 33.9599L452.613 36.7435L453.727 40.0838V43.9809L452.613 47.3212L450.386 50.6615L445.933 53.4451L442.036 54.5586H429.788L424.221 52.8884L419.767 48.9914L418.097 43.9809L423.107 42.8674H426.447L428.118 44.5376L429.788 46.7645L432.015 47.3212H439.252L443.149 45.651L443.706 41.754L439.252 39.5271L428.118 36.7435L423.664 34.5166L420.324 30.6196L419.767 29.5061V22.2688L421.994 18.3717L425.334 15.5881L430.345 13.918Z" fill="#090708"/>
<path d="M152.541 13.918L159.778 15.0314L164.232 17.2583L168.129 21.7121L168.686 25.0524L167.016 25.6091H160.892L155.881 22.2688L150.871 21.1553L145.86 21.7121V26.7225L149.201 28.3927L160.335 31.1763L164.789 33.4032L168.686 37.3002L169.243 38.9704V46.2078L167.016 50.1048L163.119 53.4451L158.665 55.1153H146.974L140.293 53.4451L136.953 50.6615L135.839 47.8779V42.8674L141.407 43.4242L144.747 45.651L147.53 47.3212L150.314 47.8779H156.438L159.778 46.2078L160.335 41.754V40.6406L153.654 39.5271L143.633 36.7435L139.18 33.9599L136.953 31.1763L136.396 29.5061V22.8255L138.066 20.0419L142.52 16.1449L146.974 14.4747L152.541 13.918Z" fill="#D5C9EF"/>
<path d="M356.858 2.22687H361.869L364.652 2.78359L365.209 45.0944L392.488 45.6511V54.0019H354.075V2.78359L356.858 2.22687Z" fill="#090708"/>
<path d="M52.8879 5.01044H56.2282L56.785 13.918L62.9089 14.4747L63.4656 15.0314V21.7121L62.9089 22.2688H56.785L57.3417 46.2078L57.8984 46.7645L62.9089 47.3212L64.0223 47.8779V53.4451L63.4656 54.5586L61.2387 55.1153H51.7745L48.4341 52.8884L46.764 50.1048L46.2073 47.8779L45.6505 22.8255L41.7535 21.7121L41.1968 16.1449L43.4237 14.4747L46.764 13.918L48.4341 8.35076L48.9909 6.12388L52.8879 5.01044Z" fill="#D5C9EF"/>
<path d="M467.645 5.01044H472.655L473.212 6.12388V14.4747H479.892L480.449 15.0314V21.1553L479.892 21.7121H473.768V45.0943L475.439 46.7645L480.449 47.3212L481.006 48.4347V52.8884L479.892 54.0019L477.665 54.5586H468.758L465.418 52.8884L463.191 49.5481L462.634 46.7645V21.1553L461.521 21.7121H458.18L457.624 20.5986V16.1449L458.18 14.4747L463.191 13.918L466.531 5.56716L467.645 5.01044Z" fill="#090708"/>
<path d="M484.904 9.46417L487.687 10.0209L509.956 18.3717L521.647 22.8255L522.761 23.9389V34.5166L521.091 36.1868L501.605 43.4241L487.131 48.9913H484.904V41.1973L489.914 38.9704L513.853 29.5061L514.41 28.3927L509.4 27.2792L490.471 20.0419L485.461 17.815L484.904 17.2583V9.46417Z" fill="#090708"/>
<path d="M35.6301 10.0209H37.857V15.0314L36.7436 18.3717L28.9495 22.2688L18.3718 26.1658L8.90753 28.9494V30.0629L23.3823 35.6301L37.857 41.754V49.5481L35.0734 48.9914L17.8151 42.3107L2.7836 36.7435L0.556721 35.6301L0 34.5166V23.939L11.1344 19.4852L35.6301 10.0209Z" fill="#D5C9EF"/>
<path d="M399.725 14.4747H410.303V54.0019H399.725V14.4747Z" fill="#090708"/>
<path d="M115.797 14.4747H125.261L125.818 15.0315V55.1153H120.807L116.354 54.5586L115.797 54.0019V14.4747Z" fill="#D5C9EF"/>
<path d="M199.306 14.4747H208.77L209.327 27.836V54.0019L206.544 55.1153H200.976L199.306 54.5586L198.75 52.8885L199.306 14.4747Z" fill="#D5C9EF"/>
<path d="M327.352 30.0629H346.28V38.9705H327.352V30.0629Z" fill="#090708"/>
<path d="M399.725 0H410.303V7.23737L409.746 7.79409H400.282L399.725 7.23737V0Z" fill="#090708"/>
<path d="M116.91 0.556702H125.261L125.818 1.11342V7.23735L125.261 7.79407H116.354L115.797 5.56719L116.354 1.11342L116.91 0.556702Z" fill="#D7CCF0"/>
<path d="M199.862 0.556702H208.213L208.77 1.11342V7.23735L208.213 7.79407L204.316 8.35079H199.862L199.306 7.79407L199.862 0.556702Z" fill="#D6CAEF"/>
</svg>
