<svg width="896" height="815" viewBox="0 0 896 815" fill="none" xmlns="http://www.w3.org/2000/svg">
<rect width="896" height="815" fill="white"/>
<path d="M492.118 254.409C495.378 254.409 498.021 251.092 498.021 247H540C540 280.188 518.563 307.091 492.118 307.091H404.882C401.622 307.091 398.978 310.408 398.978 314.5C398.978 318.592 401.622 321.909 404.882 321.909H492.118C518.563 321.909 540 348.812 540 382.001C540 415.188 518.563 442.091 492.118 442.091H404.882C401.622 442.091 398.978 445.409 398.978 449.5C398.978 453.591 401.622 456.909 404.882 456.909H492.118C518.563 456.909 540 483.812 540 516.999C540 550.188 518.563 577.092 492.118 577.092H404.882C401.622 577.092 398.978 580.408 398.978 584.501C398.978 588.592 401.622 591.909 404.882 591.909H492.118C518.563 591.909 540 618.813 540 652H498.021C498.021 647.909 495.378 644.591 492.118 644.591H404.882C378.438 644.591 357 617.688 357 584.501C357 551.312 378.438 524.408 404.882 524.408H492.118C495.378 524.408 498.021 521.092 498.021 516.999C498.021 512.908 495.378 509.591 492.118 509.591H404.882C378.438 509.591 357 482.687 357 449.5C357 416.313 378.438 389.409 404.882 389.409H492.118C495.378 389.409 498.021 386.092 498.021 382.001C498.021 377.908 495.378 374.592 492.118 374.592H404.882C378.438 374.592 357 347.688 357 314.5C357 281.312 378.438 254.409 404.882 254.409H492.118Z" fill="#2F6AD8" fill-opacity="0.56"/>
<path d="M492.118 254.409C495.378 254.409 498.021 251.092 498.021 247H540C540 280.188 518.563 307.091 492.118 307.091H404.882C401.622 307.091 398.978 310.408 398.978 314.5C398.978 318.592 401.622 321.909 404.882 321.909H492.118C518.563 321.909 540 348.812 540 382.001C540 415.188 518.563 442.091 492.118 442.091H404.882C401.622 442.091 398.978 445.409 398.978 449.5C398.978 453.591 401.622 456.909 404.882 456.909H492.118C518.563 456.909 540 483.812 540 516.999C540 550.188 518.563 577.092 492.118 577.092H404.882C401.622 577.092 398.978 580.408 398.978 584.501C398.978 588.592 401.622 591.909 404.882 591.909H492.118C518.563 591.909 540 618.813 540 652H498.021C498.021 647.909 495.378 644.591 492.118 644.591H404.882C378.438 644.591 357 617.688 357 584.501C357 551.312 378.438 524.408 404.882 524.408H492.118C495.378 524.408 498.021 521.092 498.021 516.999C498.021 512.908 495.378 509.591 492.118 509.591H404.882C378.438 509.591 357 482.687 357 449.5C357 416.313 378.438 389.409 404.882 389.409H492.118C495.378 389.409 498.021 386.092 498.021 382.001C498.021 377.908 495.378 374.592 492.118 374.592H404.882C378.438 374.592 357 347.688 357 314.5C357 281.312 378.438 254.409 404.882 254.409H492.118Z" fill="#F677AC" fill-opacity="0.2"/>
<path d="M161.364 212.554L197.102 292.835L208.802 270.703L252.031 304.53L216.292 224.25L204.593 246.382L161.364 212.554Z" fill="#FDCD35"/>
<path d="M791.946 383.666L760.774 358.249L707.715 390.348L721.236 401.373L677.365 432.171L761.33 408.944L747.435 397.614L791.946 383.666Z" fill="#58D8A2"/>
</svg>
