<svg width="209" height="209" viewBox="0 0 209 209" fill="none" xmlns="http://www.w3.org/2000/svg">
<g clip-path="url(#clip0_100_346)">
<path d="M75.523 76.304C75.7931 73.8657 76.4082 71.4064 76.2617 68.9933C75.9559 63.9528 75.2045 58.9408 74.7236 53.9087C74.4812 51.3722 74.5972 48.7946 74.2556 46.2757C73.6253 41.6294 74.285 37.12 75.9842 32.8828C78.9336 25.528 84.4578 20.8814 92.2436 19.2139C98.0315 17.9743 103.564 18.8745 108.861 22.1645C109.112 23.183 109.246 23.9893 109.248 24.7961C109.267 30.2999 109.235 35.804 109.272 41.3076C109.283 42.9636 109.541 44.6638 107.035 44.5625C106.881 44.5563 106.712 44.9152 106.284 45.4144C107.398 45.6641 108.241 45.853 109.258 46.0811C109.258 46.8669 109.258 47.6018 109.258 48.3368C109.259 53.8406 109.238 59.3447 109.271 64.8484C109.285 67.3517 110.366 68.4004 112.871 68.5145C113.48 68.5422 114.09 68.5718 114.701 68.7689C114.766 71.676 115.341 72.2497 118.078 72.2513C127.027 72.2566 135.975 72.2548 144.937 72.4285C144.749 73.7898 144.548 74.9785 144.323 76.304C121.302 76.304 98.4124 76.304 75.523 76.304ZM79.9393 58.1219C78.516 60.1088 78.3158 61.9404 79.4426 63.56C80.4936 65.0707 81.9641 65.8633 83.8214 65.5108C85.8016 65.1351 87.1013 63.9407 87.466 61.8942C87.7972 60.0356 87.1633 58.521 85.5939 57.5036C83.7215 56.2897 81.8762 56.4305 79.9393 58.1219ZM83.2878 43.3286C83.8906 43.2487 84.4934 43.1689 85.0962 43.0891C84.9508 42.7607 84.8674 42.1968 84.6504 42.1396C81.9557 41.4289 79.2416 40.792 76.5324 40.136C76.4072 40.431 76.2821 40.7261 76.1569 41.0211C76.6497 41.3595 77.0986 41.8552 77.6434 42.0075C79.3989 42.4982 81.1899 42.8623 83.2878 43.3286ZM99.8763 44.2843C97.4496 44.0084 95.0259 43.6951 92.5929 43.4955C92.2123 43.4643 91.7893 43.9506 91.3858 44.1976C91.7125 44.4656 92.0141 44.9238 92.3698 44.9705C94.658 45.271 96.9554 45.5251 99.2577 45.6635C99.5305 45.6799 99.851 44.9017 99.8763 44.2843Z" fill="#E4DFFB"/>
<path d="M25.1388 84.09C28.1792 81.4652 31.8628 80.3536 35.6989 79.5993C42.4092 78.2798 48.5178 79.968 54.33 83.2621C55.9262 84.1667 57.6165 84.9053 59.4356 85.9145C59.6076 96.9965 59.6076 107.884 59.6076 119.065C58.348 118.589 57.4307 118.174 56.472 117.911C56.0421 117.793 55.5293 117.977 55.054 118.024C55.3472 118.458 55.6192 118.909 55.9452 119.318C56.0579 119.459 56.2979 119.537 56.4919 119.568C59.3903 120.036 60.0718 121.88 59.6934 124.511C59.5404 125.575 59.6682 126.68 59.6682 127.766C59.6682 130.857 59.6682 133.948 59.6682 136.793C56.7468 135.923 54.0493 134.796 51.244 134.358C46.5405 133.622 42.4843 135.526 38.8108 138.334C38.9714 131.384 35.1385 126.734 29.9147 122.885C29.0225 122.228 28.1316 121.568 27.0916 120.692C26.9748 116.139 25.2527 114.625 20.8588 115.111C20.5955 115.141 20.3244 115.099 20.0569 115.09C19.2487 113.678 18.2743 112.334 17.6601 110.842C14.4553 103.056 15.1874 95.6167 20.1073 88.7568C21.3581 87.0128 23.1436 85.6524 24.8806 84.2628C26.0061 87.0517 26.9148 89.7009 27.8964 92.3227C27.9843 92.5573 28.5492 92.7223 28.8841 92.709C29.0503 92.7024 29.3942 92.1393 29.3235 91.9597C28.3379 89.4584 27.3177 86.9697 26.2295 84.5118C26.1179 84.2597 25.5142 84.2254 25.1388 84.09ZM45.6062 113.394C46.5064 114.004 47.3826 114.656 48.3222 115.197C48.5866 115.35 49.0373 115.179 49.4025 115.156C49.3308 114.749 49.4062 114.152 49.1639 113.963C47.2889 112.501 45.3694 111.094 43.4163 109.737C43.1286 109.537 42.5914 109.697 42.1696 109.69C42.2788 110.104 42.256 110.661 42.5213 110.907C43.4168 111.736 44.4145 112.454 45.6062 113.394ZM34.0443 99.6104C33.8868 99.3917 33.7702 99.1171 33.5633 98.9659C33.1226 98.644 32.6351 98.3863 32.1668 98.1022C32.2068 98.6873 32.0354 99.4207 32.3236 99.8317C33.5204 101.538 34.818 103.18 36.17 104.768C36.4701 105.121 37.1418 105.157 37.6424 105.338C37.5566 104.821 37.6304 104.189 37.3563 103.806C36.378 102.439 35.2816 101.156 34.0443 99.6104Z" fill="#E5E0FC"/>
<path d="M192.239 142.097C191.567 144.012 190.894 145.927 190.056 147.972C188.868 147.486 188.456 148.115 188.073 148.943C187.41 150.375 186.697 151.783 186.249 152.702C182.191 150.83 178.524 148.8 174.625 147.425C169.586 145.648 164.359 146.266 159.209 147.136C159.206 129.95 159.22 112.952 159.18 95.9549C159.176 94.2594 159.508 93.6582 161.397 94.0878C164.818 94.8661 168.309 95.3381 171.771 95.938C172.207 97.847 172.417 99.8451 173.13 101.645C174.267 104.518 177.023 105.499 179.721 106.081C186.019 107.439 189.75 111.362 191.904 117.233C193.222 120.823 194.024 124.446 193.904 128.272C193.858 129.749 193.898 131.228 193.789 132.966C192.842 135.825 191.971 138.414 191.223 141.038C191.156 141.275 191.882 141.738 192.239 142.097ZM172.797 125.288C171.832 124.495 170.9 123.653 169.882 122.934C169.52 122.679 168.948 122.723 168.471 122.631C168.559 123.094 168.491 123.708 168.765 123.993C169.636 124.899 170.635 125.684 171.737 126.649C170.499 127.816 169.562 128.605 168.757 129.511C168.489 129.812 168.56 130.413 168.476 130.877C168.953 130.782 169.603 130.849 169.874 130.56C170.701 129.681 171.381 128.664 172.472 127.24C173.796 128.789 174.584 129.801 175.483 130.7C175.717 130.935 176.3 130.82 176.723 130.866C176.681 130.447 176.8 129.864 176.569 129.637C175.655 128.738 174.632 127.951 173.146 126.698C174.508 125.616 175.507 124.914 176.377 124.079C176.674 123.794 176.65 123.174 176.772 122.707C176.254 122.803 175.618 122.742 175.243 123.026C174.44 123.635 173.773 124.421 172.797 125.288Z" fill="#E5E0FC"/>
<path d="M159.21 147.324C164.359 146.266 169.586 145.648 174.625 147.425C178.524 148.8 182.191 150.83 186.249 152.702C186.697 151.783 187.41 150.375 188.072 148.943C188.456 148.115 188.868 147.486 190.028 148.123C189.474 149.867 188.871 151.633 188.055 153.295C187.612 154.199 187.57 154.712 188.311 155.508C192.549 160.062 194.861 165.444 195.573 171.671C196.596 180.614 193.77 188.236 187.873 194.694C183.919 199.025 178.86 202.011 172.974 202.803C164.488 203.944 161.685 203.7 153.679 200.039C152.233 203.134 149.5 203.331 146.425 203.322C119.497 203.246 92.567 203.215 65.6388 203.357C62.1805 203.375 59.3536 200.327 59.5551 197.154C59.7702 193.768 59.597 190.357 59.621 186.577C59.6331 180.054 59.6176 173.911 59.6274 167.583C59.6526 166.075 59.6526 164.752 59.6526 163.343C50.7349 166.744 50.6797 166.751 43.9594 165.268C42.6422 164.477 41.475 163.698 40.2227 163.095C39.8461 162.914 39.2329 163.225 38.7281 163.31C37.5066 164.426 36.2851 165.542 34.9889 166.726C37.9982 171.251 39.5967 175.995 38.2403 181.327C37.2333 185.285 35.0475 188.492 31.674 190.812C25.3589 195.155 15.6565 194.521 10.0344 187.811C5.46672 182.36 4.85053 172.904 10.3069 166.711C15.3728 160.962 24.1566 159.497 30.3132 163.221C32.0614 161.472 33.7137 159.818 35.492 158.039C31.5864 150.663 33.8614 143.059 38.6789 138.389C42.484 135.526 46.5402 133.622 51.2437 134.358C54.0489 134.796 56.7465 135.923 59.6678 136.793C59.6678 133.948 59.6678 130.857 59.6678 127.766C59.6678 126.68 59.54 125.575 59.6931 124.511C60.0714 121.88 59.3899 120.036 56.4916 119.568C56.2975 119.537 56.0576 119.459 55.9449 119.318C55.6188 118.909 55.3469 118.458 55.0537 118.024C55.5289 117.977 56.0418 117.793 56.4716 117.911C57.4304 118.174 58.3476 118.589 59.6072 119.065C59.6072 107.884 59.6072 96.9965 59.587 85.9186C59.8453 83.4339 59.021 81.0012 60.5262 78.8569C61.6248 77.2919 62.9858 76.3205 64.9724 76.334C68.3616 76.357 71.7511 76.3366 75.3316 76.3192C98.4122 76.304 121.302 76.304 144.323 76.304C144.547 74.9785 144.749 73.7898 145.009 72.4194C145.067 72.2376 145.211 72.2161 145.38 72.2276C145.886 72.2491 146.224 72.2592 146.566 72.4408C146.401 73.7815 146.23 74.9509 146.087 75.9332C148.084 76.3932 149.886 76.8081 151.77 77.34C153.578 78.8834 154.321 80.7248 154.272 82.9502C154.232 84.8282 154.285 86.7082 154.297 88.7564C154.306 89.377 154.315 89.8286 154.312 90.4543C154.308 91.444 154.316 92.2597 154.305 93.2656C154.286 111.981 154.286 130.507 154.286 149.261C156.09 148.551 157.65 147.938 159.21 147.324ZM38.9121 140.882C38.2105 141.953 37.387 142.964 36.8284 144.105C34.3873 149.092 35.2807 155.72 38.9702 159.318C39.041 159.325 39.1117 159.331 39.1931 159.587C39.7133 160.136 40.2336 160.685 40.8618 161.5C45.6998 165.241 50.9005 165.556 56.3715 163.105C58.6375 162.089 60.2442 160.677 59.6978 157.804C59.46 156.553 59.5908 155.233 59.5866 153.616C59.6011 153.18 59.6156 152.743 59.6578 151.918C59.6599 148.28 59.6537 144.642 59.6678 141.005C59.6744 139.3 58.9566 138.333 57.1318 138.132C56.8641 137.943 56.5963 137.754 56.1827 137.309C50.1175 134.412 42.8226 135.887 38.9121 140.882ZM31.2569 166.1C31.2569 166.1 31.0831 166.074 30.9462 165.826C28.2063 163.862 25.1569 163.099 21.7905 163.202C11.6259 163.514 5.02485 174.761 9.80672 184.038C10.1862 184.471 10.5656 184.903 11.0002 185.626C11.2912 186.148 11.4957 186.748 11.8861 187.181C18.6246 194.641 31.0943 192.847 35.4834 183.801C37.9499 178.718 37.0414 171.77 33.45 168.235C32.7759 167.537 32.1019 166.839 31.2569 166.1ZM144.032 158.341C146.602 155.887 149.203 153.466 151.713 150.952C152.186 150.478 152.293 149.637 152.633 148.591C152.645 126.551 152.667 104.511 152.654 82.4705C152.652 79.4162 150.868 77.9105 147.429 77.9097C120.49 77.9033 93.5515 77.9033 66.6129 77.9092C62.7744 77.91 61.2593 79.404 61.2588 83.1902C61.2536 120.945 61.2533 158.7 61.2595 196.455C61.2601 200.132 62.8021 201.679 66.4664 201.688C73.4051 201.704 80.3438 201.693 87.2826 201.693C107.214 201.693 127.146 201.717 147.078 201.64C148.452 201.635 149.822 200.877 151.419 200.34C151.696 199.92 151.973 199.499 152.265 199.056C146.554 195.28 142.522 190.412 140.355 184.074C138.931 179.908 138.929 179.909 133.906 180.035C120.801 180.032 107.696 180.043 94.5905 179.991C93.7079 179.988 92.8273 179.506 91.9458 179.246C92.8212 178.973 93.6954 178.465 94.5724 178.46C107.676 178.388 120.78 178.381 134.261 178.41C135.778 178.41 137.295 178.41 138.961 178.41C138.218 170.943 140.03 164.471 144.032 158.341ZM157.696 149.691C147.604 153.81 141.653 161.349 140.533 172.093C138.654 190.106 154.361 204.44 172.165 201.212C185.849 198.731 196.29 185.625 193.617 170.065C190.902 154.266 174.333 143.682 157.696 149.691ZM34.8895 163.706C35.6927 162.754 36.496 161.803 37.2992 160.851C34.3437 161.174 33.3527 162.177 32.7393 165.138C33.5388 164.637 34.1114 164.279 34.8895 163.706Z" fill="#6B4CAB"/>
<path d="M114.7 68.6006C114.09 68.5719 113.481 68.5423 112.871 68.5145C110.366 68.4005 109.286 67.3517 109.271 64.8484C109.238 59.3447 109.259 53.8407 109.258 48.3368C109.258 47.6018 109.258 46.8669 109.258 46.0811C108.241 45.853 107.398 45.6641 106.284 45.4144C106.712 44.9152 106.881 44.5563 107.035 44.5625C109.541 44.6638 109.283 42.9636 109.272 41.3076C109.236 35.804 109.267 30.2999 109.249 24.7961C109.246 23.9894 109.113 23.1831 109 22.2107C108.804 19.6407 110.311 18.3784 112.957 18.3748C119.823 18.3655 126.69 18.3484 133.557 18.3937C134.737 18.4015 135.394 18.1444 136.068 17.0027C138.057 13.6282 142.219 13.8684 144.174 17.2508C144.487 17.7925 145.357 18.2996 145.988 18.3216C149.111 18.4306 152.241 18.3661 155.368 18.3731C158.059 18.3791 159.186 19.4842 159.194 22.1479C159.212 28.0623 159.214 33.9768 159.229 40.2422C159.217 41.0514 159.2 41.5095 159.157 42.1635C159.161 47.4103 159.19 52.4613 159.218 57.678C159.208 58.2849 159.198 58.7261 159.16 59.3578C159.05 62.1364 158.968 64.7246 158.746 67.3317C158.252 67.7315 157.9 68.1126 157.358 68.5017C153.901 68.5334 150.635 68.5569 147.203 68.5795C146.596 68.5812 146.154 68.5841 145.523 68.5639C135.123 68.5608 124.911 68.5807 114.7 68.6006ZM141.665 23.1754C141.065 23.2823 140.331 23.6645 139.887 23.4491C137.761 22.418 136.461 23.5045 135.244 25.0029C135.117 25.1595 134.967 25.3623 134.794 25.4039C134.441 25.4888 134.065 25.4785 133.698 25.5074C133.717 25.1412 133.598 24.6695 133.782 24.4292C134.274 23.7859 134.952 23.2852 135.446 22.6431C135.777 22.2124 136.232 21.4838 136.074 21.1623C135.836 20.6782 135.113 20.1365 134.592 20.1319C127.386 20.0691 120.178 20.0728 112.971 20.1157C111.578 20.124 110.678 20.8217 110.679 22.3894C110.69 36.4645 110.686 50.5397 110.685 64.6148C110.685 66.1853 111.358 66.9623 113.033 66.9589C127.108 66.93 141.184 66.9328 155.259 66.9548C156.918 66.9574 157.563 66.2206 157.56 64.6009C157.538 50.5938 157.536 36.5866 157.562 22.5795C157.566 20.7102 156.669 20.0393 154.919 20.0724C152.608 20.1162 150.294 20.1201 147.983 20.0707C146.002 20.0283 144.016 19.8095 143.062 22.1939C142.913 22.5661 142.325 22.7626 141.665 23.1754ZM142.754 18.3815C141.623 16.4261 140.359 15.8239 138.861 16.6129C137.591 17.2817 136.95 18.359 137.338 19.8052C137.716 21.2181 138.764 22.0517 140.189 21.908C141.993 21.7259 142.921 20.5651 142.754 18.3815Z" fill="#6947A8"/>
<path d="M159.209 147.136C157.65 147.938 156.09 148.551 154.286 149.261C154.286 130.507 154.286 111.981 154.483 93.2612C155.404 93.1023 156.187 92.9694 156.838 93.2051C158.756 93.9002 159.416 93.1941 159.406 91.323C160.773 91.5153 161.978 91.6466 163.157 91.902C166.076 92.5347 168.984 93.2242 171.896 93.8909C171.874 94.4608 171.852 95.0307 171.801 95.7693C168.309 95.3381 164.818 94.8661 161.397 94.0878C159.508 93.6583 159.176 94.2594 159.18 95.9549C159.22 112.952 159.206 129.95 159.209 147.136Z" fill="#CEC9E3"/>
<path d="M60.317 29.4911C63.0782 31.2616 64.8723 33.6961 66.2086 36.4414C67.0178 38.1038 67.8393 39.4064 70.0282 38.7253C70.4512 40.4168 69.8763 41.0068 68.0919 40.577C70.37 47.6173 69.4795 54.1292 65.8944 60.2514C63.1609 64.9195 59.155 68.1742 54.1364 70.1635C43.9004 74.2209 30.9084 70.5778 24.6382 59.3672C24.237 60.8345 24.7948 62.7062 22.4626 63.4637C22.4626 61.9401 22.1598 60.5883 22.5258 59.452C23.2809 57.1079 22.8306 54.8965 22.4201 52.6223C20.4008 41.4348 25.3252 31.3899 35.3459 26.7052C43.9321 22.6911 52.4542 23.5582 60.317 29.4911ZM56.3946 67.2579C64.4809 62.2295 68.308 55.018 67.4036 45.4762C66.3362 34.2137 56.2787 25.7592 44.5097 26.1349C33.5724 26.4841 24.0553 35.9613 23.6839 46.8732C23.0912 64.2884 40.5863 75.3532 56.3946 67.2579Z" fill="#6948A8"/>
<path d="M38.7974 163.449C39.2331 163.225 39.8463 162.914 40.223 163.095C41.4752 163.698 42.6424 164.477 43.9876 165.405C48.092 168.886 52.5469 169.655 57.4358 168.277C58.1492 168.076 58.8797 167.936 59.6024 167.768C59.6178 173.911 59.6333 180.054 59.6152 186.388C56.8232 184.963 53.8171 183.653 51.3608 181.664C47.0309 178.158 43.3481 173.976 40.9532 168.844C40.1574 167.139 39.5565 165.342 38.7974 163.449Z" fill="#E5E0FC"/>
<path d="M172.068 93.8753C168.984 93.2242 166.077 92.5347 163.157 91.9019C161.979 91.6466 160.774 91.5153 159.405 91.2513C159.228 91.1751 159.194 91.035 159.197 90.8673C159.216 90.3645 159.232 90.0294 159.422 89.6987C168.944 91.4213 178.301 93.1004 187.636 94.8927C189.369 95.2253 190.233 94.7682 190.546 93.0793C193.119 79.1926 195.694 65.3064 198.284 51.4229C198.562 49.9334 198.087 49.1153 196.525 48.8427C193.315 48.2827 190.132 47.561 186.914 47.0623C186.298 46.9668 185.447 47.4491 184.918 47.9102C183.535 49.1167 181.946 49.9995 180.301 49.0384C178.573 48.0293 177.449 48.6031 176.215 49.6635C175.96 49.8833 175.673 50.1527 175.367 50.2065C174.969 50.2764 174.537 50.1534 174.12 50.1135C174.266 49.7189 174.305 49.2113 174.579 48.9538C175.117 48.4477 175.843 48.1416 176.384 47.6371C176.822 47.2286 177.502 46.4242 177.371 46.1933C177.064 45.6507 176.384 45.1049 175.771 44.9842C171.508 44.1446 167.223 43.4131 162.931 42.5925C162.917 42.5381 162.871 42.4355 162.871 42.2809C162.876 41.7143 162.88 41.3022 162.884 40.8901C167.01 41.6392 171.137 42.3748 175.258 43.1464C176.361 43.3529 177.228 43.4006 178.027 42.2778C179.214 40.6097 180.908 40.0131 182.984 40.678C185.13 41.3652 186.127 42.8275 186.229 45.144C189.531 45.7401 192.857 46.379 196.198 46.9332C199.565 47.4919 200.502 48.9181 199.87 52.2119C197.966 62.137 196.143 72.0775 194.297 82.0136C193.842 84.4651 193.397 86.9191 192.998 89.3801C192.905 89.9474 193.019 90.5481 192.894 91.3226C192.459 92.4547 192.166 93.3974 191.873 94.3401C190.999 96.5272 189.864 97.0631 187.446 96.6108C182.383 95.6641 177.309 94.7734 172.068 93.8753ZM178.805 44.7853C178.864 46.6177 179.756 47.7391 181.632 47.7667C183.309 47.7914 184.299 46.763 184.423 45.1652C184.543 43.6365 183.664 42.561 182.16 42.2585C180.405 41.9052 179.373 42.864 178.805 44.7853Z" fill="#6A48A3"/>
<path d="M13.4373 16.8404C14.9108 14.146 17.305 13.2452 19.7082 14.3436C21.7314 15.2683 22.7843 17.6917 22.0968 19.8419C21.2753 22.411 18.8571 23.8725 16.5594 23.1886C13.8304 22.3763 12.5792 19.9316 13.4373 16.8404ZM20.0446 19.7363C20.8755 18.5238 20.4548 17.4751 19.3915 16.7957C18.6852 16.3444 17.5228 15.8571 16.9398 16.1452C16.1423 16.5393 15.2657 17.6363 15.2308 18.466C15.1963 19.2859 15.9892 20.3913 16.7364 20.9367C17.9712 21.838 18.9951 20.9547 20.0446 19.7363Z" fill="#6644A8"/>
<path d="M64.4422 11.0209C63.6489 9.4415 61.5091 8.85806 61.6526 6.74677C63.387 6.53115 63.387 6.53115 66.2283 9.19528C67.9341 8.84189 68.3506 5.43122 71.2606 7.20087C70.0651 8.45992 69.0114 9.5697 67.7049 10.9457C68.5165 11.6866 69.4668 12.344 70.1135 13.2245C70.4952 13.7442 70.3961 14.6172 70.5133 15.3313C69.8501 15.1797 69.0255 15.2219 68.5597 14.8337C67.748 14.1572 67.1575 13.2154 66.0126 11.8236C64.9432 13.1978 64.2564 14.2098 63.4197 15.077C63.1658 15.3402 62.4973 15.2033 62.0188 15.2496C62.0341 14.7226 61.8472 14.0469 62.1041 13.6975C62.7804 12.778 63.6497 12.0003 64.4422 11.0209Z" fill="#6645A9"/>
<path d="M19.9986 115.221C20.3243 115.099 20.5954 115.141 20.8587 115.111C25.2526 114.625 26.9747 116.139 26.9576 120.65C25.715 123.064 23.8031 124.21 22.097 123.946C20.0217 123.623 18.5773 122.575 18.0628 120.55C17.5319 118.459 18.2076 116.685 19.9986 115.221ZM21.6895 116.772C19.4442 118.398 19.3755 120.486 21.5264 121.732C22.8843 122.518 24.1207 121.832 25.3642 119.315C24.9638 116.949 23.9615 116.195 21.6895 116.772Z" fill="#6847A9"/>
<path d="M194.311 106.117C194.195 105.216 193.963 104.485 194.015 103.775C194.047 103.334 194.449 102.855 194.813 102.542C194.926 102.445 195.74 102.811 195.758 103.009C196.032 105.972 196.23 108.942 196.427 111.911C196.432 111.989 196.234 112.079 195.743 112.482C195.365 111.607 194.903 110.879 194.745 110.091C194.494 108.848 194.448 107.563 194.311 106.117Z" fill="#6644A8"/>
<path d="M22.1822 72.4948C22.0907 71.5192 21.986 70.6932 22.1126 69.9043C22.1666 69.5678 22.6943 69.0901 23.0236 69.0762C23.3538 69.0624 23.9697 69.5152 24.0054 69.8172C24.3325 72.5852 24.5605 75.3649 24.8236 78.2076C23.6622 78.5176 22.9524 78.3878 22.8428 77.0169C22.7261 75.5583 22.4622 74.1114 22.1822 72.4948Z" fill="#6644A8"/>
<path d="M194.962 119.894C195.231 118.096 195.231 118.096 196.907 118.23C196.719 120.808 196.582 123.399 196.298 125.973C196.244 126.458 195.608 126.878 195.24 127.328C194.93 126.821 194.342 126.305 194.359 125.809C194.422 123.886 194.678 121.968 194.962 119.894Z" fill="#6644A8"/>
<path d="M192.385 142.036C191.882 141.738 191.156 141.275 191.224 141.038C191.971 138.414 192.842 135.825 193.801 133.141C194.184 133.629 194.772 134.284 194.652 134.763C194.046 137.192 193.256 139.576 192.385 142.036Z" fill="#694AAA"/>
<path d="M25.095 84.0599C25.5138 84.2253 26.1175 84.2596 26.2292 84.5118C27.3174 86.9697 28.3375 89.4584 29.3231 91.9596C29.3939 92.1392 29.05 92.7024 28.8838 92.709C28.5488 92.7223 27.9839 92.5573 27.8961 92.3227C26.9145 89.7008 26.0058 87.0517 25.0251 84.255C24.9728 84.1001 25.0516 84.0298 25.095 84.0599Z" fill="#7151AF"/>
<path d="M14.1551 47.3709C15.1503 48.1452 16.0914 48.8276 16.7884 49.7041C17.1422 50.1492 17.056 50.9441 17.1687 51.5809C16.5102 51.4871 15.732 51.5812 15.2212 51.2556C14.4454 50.7611 13.8144 50.0111 13.1957 49.305C12.2035 48.1726 12.5257 47.5096 14.1551 47.3709Z" fill="#6644A8"/>
<path d="M177.468 26.6414C177.265 26.4382 177.119 26.3583 177.081 26.2431C176.83 25.4622 176.602 24.6739 176.366 23.888C177.174 24.1632 178.02 24.3644 178.778 24.7411C179.241 24.9714 179.71 25.4057 179.926 25.8659C180.221 26.4921 180.276 27.2306 180.435 27.9209C179.722 27.7696 178.993 27.669 178.304 27.443C178.016 27.3483 177.815 26.988 177.468 26.6414Z" fill="#6A48A3"/>
<path d="M179.411 17.2414C180.877 17.3036 181.256 17.947 180.379 18.9891C179.557 19.9659 178.632 20.8733 177.65 21.6871C177.366 21.9217 176.728 21.7268 176.252 21.7288C176.256 21.2536 176.064 20.6102 176.3 20.3331C177.217 19.2595 178.27 18.3025 179.411 17.2414Z" fill="#6644A8"/>
<path d="M16.4498 56.0067C15.6731 56.7733 15.0625 57.5185 14.3059 58.0595C14.009 58.2718 13.2964 58.1642 12.9456 57.9365C12.7503 57.8098 12.7291 56.9789 12.9405 56.7367C13.8675 55.6743 14.8634 54.6578 15.941 53.7516C16.1895 53.5427 16.8595 53.8349 17.3355 53.8965C17.0761 54.5655 16.8167 55.2345 16.4498 56.0067Z" fill="#6644A8"/>
<path d="M9.89007 58.3405C8.85504 57.5059 7.84179 56.7807 7.13606 55.8278C6.73141 55.2814 6.82609 54.3652 6.69597 53.6155C6.97371 53.4915 7.25145 53.3675 7.5292 53.2434C8.5698 54.3586 9.64588 55.4433 10.6391 56.5992C11.3542 57.4314 11.078 58.0542 9.89007 58.3405Z" fill="#6644A7"/>
<path d="M185.005 18.2526C185.898 19.4357 187.933 20.1166 185.928 22.5605C185.011 21.4531 184.135 20.5305 183.431 19.4915C183.052 18.9314 182.967 18.1722 182.749 17.5027C183.466 17.7167 184.183 17.9306 185.005 18.2526Z" fill="#6644A8"/>
<path d="M184.104 27.9298C183.1 28.2722 182.291 28.3367 182.502 27.0199C182.671 25.9654 185.441 23.8363 186.852 23.7383C187.264 25.9584 185.107 26.5082 184.104 27.9298Z" fill="#6644A8"/>
<path d="M9.49156 50.3118C8.59662 50.9797 7.81043 51.5387 6.77379 52.2759C6.58623 49.7118 8.89107 47.4066 11.455 47.5934C10.7182 48.6301 10.1592 49.4165 9.49156 50.3118Z" fill="#6644A8"/>
<path d="M192.004 94.4094C192.166 93.3974 192.458 92.4547 192.894 91.4772C193.449 92.7092 193.943 93.9578 194.226 95.2527C194.319 95.6791 193.864 96.2249 193.659 96.7162C193.245 96.3635 192.759 96.0647 192.443 95.6397C192.221 95.3418 192.23 94.8718 192.004 94.4094Z" fill="#583B91"/>
<path d="M162.72 40.8617C162.88 41.3022 162.875 41.7143 162.702 42.2952C161.416 42.2985 160.299 42.1331 159.182 41.9676C159.199 41.5095 159.216 41.0514 159.256 40.4214C160.371 40.4441 161.463 40.6387 162.72 40.8617Z" fill="#5D3E91"/>
<path d="M114.701 68.7689C124.911 68.5807 135.122 68.5608 145.517 68.7281C145.537 70.0156 145.374 71.1158 145.211 72.2161C145.211 72.2161 145.067 72.2376 144.995 72.2467C135.975 72.2548 127.027 72.2566 118.078 72.2514C115.34 72.2497 114.765 71.676 114.701 68.7689Z" fill="#CFCAE3"/>
<path d="M80.0526 58.013C81.8764 56.4305 83.7217 56.2897 85.594 57.5036C87.1634 58.521 87.7974 60.0356 87.4662 61.8942C87.1015 63.9407 85.8018 65.1351 83.8216 65.5108C81.9643 65.8633 80.4938 65.0707 79.4428 63.56C78.316 61.9404 78.5162 60.1088 80.0526 58.013ZM85.6897 59.8669C84.3097 58.2349 82.8852 57.8547 81.5245 58.7995C80.1992 59.7196 79.9871 61.0578 80.6083 62.3879C81.2425 63.7459 82.4847 64.4022 83.976 63.8574C85.6733 63.2372 86.3739 61.9731 85.6897 59.8669Z" fill="#6E4DAD"/>
<path d="M83.1275 43.3019C81.1899 42.8623 79.3989 42.4982 77.6434 42.0075C77.0986 41.8552 76.6497 41.3595 76.1569 41.0211C76.2821 40.7261 76.4072 40.431 76.5324 40.136C79.2416 40.792 81.9557 41.4289 84.6504 42.1396C84.8674 42.1968 84.9508 42.7607 85.0962 43.0891C84.4934 43.1689 83.8906 43.2487 83.1275 43.3019Z" fill="#7151AF"/>
<path d="M100.012 44.3881C99.8505 44.9017 99.53 45.6799 99.2572 45.6635C96.9549 45.525 94.6575 45.271 92.3693 44.9705C92.0136 44.9238 91.712 44.4656 91.3853 44.1976C91.7888 43.9506 92.2118 43.4643 92.5924 43.4955C95.0254 43.695 97.4491 44.0084 100.012 44.3881Z" fill="#6F4FAE"/>
<path d="M45.4894 113.304C44.4142 112.454 43.4165 111.736 42.521 110.907C42.2557 110.661 42.2785 110.104 42.1693 109.69C42.5911 109.697 43.1283 109.537 43.4161 109.737C45.3691 111.094 47.2886 112.501 49.1636 113.963C49.4059 114.152 49.3305 114.749 49.4022 115.156C49.037 115.179 48.5863 115.35 48.3219 115.197C47.3823 114.656 46.5061 114.004 45.4894 113.304Z" fill="#7151AF"/>
<path d="M34.137 99.7259C35.2814 101.156 36.3779 102.439 37.3562 103.806C37.6303 104.189 37.5565 104.821 37.6423 105.338C37.1417 105.157 36.47 105.12 36.1699 104.768C34.8179 103.18 33.5203 101.538 32.3235 99.8317C32.0353 99.4206 32.2067 98.6873 32.1667 98.1022C32.635 98.3862 33.1225 98.644 33.5631 98.9659C33.77 99.117 33.8867 99.3917 34.137 99.7259Z" fill="#7354AF"/>
<path d="M172.924 125.212C173.773 124.421 174.441 123.635 175.243 123.026C175.618 122.742 176.254 122.803 176.772 122.707C176.65 123.174 176.675 123.794 176.378 124.079C175.507 124.914 174.508 125.616 173.147 126.698C174.632 127.951 175.655 128.738 176.569 129.637C176.8 129.864 176.681 130.447 176.723 130.866C176.3 130.82 175.717 130.935 175.483 130.7C174.584 129.801 173.797 128.789 172.472 127.24C171.382 128.664 170.701 129.681 169.874 130.56C169.603 130.849 168.953 130.782 168.476 130.877C168.56 130.413 168.489 129.812 168.757 129.511C169.562 128.605 170.499 127.816 171.737 126.649C170.635 125.684 169.636 124.899 168.765 123.993C168.491 123.708 168.56 123.094 168.471 122.631C168.948 122.723 169.521 122.679 169.882 122.934C170.9 123.653 171.832 124.495 172.924 125.212Z" fill="#7354B1"/>
<path d="M133.884 178.359C120.78 178.381 107.676 178.388 94.5724 178.46C93.6954 178.465 92.8212 178.973 91.9457 179.246C92.8273 179.506 93.7079 179.988 94.5905 179.991C107.695 180.043 120.801 180.032 134.125 180.211C136.72 189.8 142.078 196.711 151.194 200.469C149.822 200.877 148.452 201.635 147.078 201.64C127.146 201.717 107.214 201.693 87.2826 201.693C80.3438 201.693 73.405 201.704 66.4663 201.688C62.8021 201.679 61.2601 200.132 61.2595 196.455C61.2533 158.7 61.2536 120.945 61.2587 83.1902C61.2592 79.4041 62.7744 77.91 66.6128 77.9092C93.5515 77.9033 120.49 77.9033 147.429 77.9097C150.868 77.9105 152.652 79.4162 152.654 82.4705C152.667 104.511 152.645 126.551 152.448 148.784C149.312 150.638 146.294 152.193 143.451 154.021C142.48 154.645 141.951 155.955 141.03 156.942C125.471 156.956 110.103 156.979 94.7344 157.004C94.0549 157.005 93.3551 156.935 92.7036 157.077C92.3312 157.158 92.0374 157.6 91.7082 157.88C91.7801 158.07 91.852 158.261 91.9239 158.452C92.7836 158.452 93.6434 158.451 94.5031 158.452C109.259 158.474 124.015 158.496 138.747 158.655C135.023 164.797 133.394 171.316 133.884 178.359ZM116.95 135.452C109.206 135.452 101.462 135.434 93.7179 135.487C93.1208 135.491 92.5271 135.988 91.9319 136.256C92.4816 136.525 93.0308 137.028 93.5812 137.029C109.681 137.071 125.78 137.07 141.88 137.037C142.489 137.036 143.098 136.653 143.707 136.448C143.67 136.118 143.633 135.788 143.596 135.457C134.85 135.446 126.104 135.455 116.95 135.452ZM99.8059 115.502C113.523 115.502 127.239 115.502 140.956 115.501C141.499 115.501 142.07 115.592 142.576 115.452C142.946 115.349 143.231 114.936 143.553 114.662C143.275 114.414 143.034 114.061 142.709 113.946C142.345 113.816 141.905 113.893 141.498 113.893C125.676 113.892 109.854 113.892 94.0321 113.892C93.7605 113.892 93.4559 113.815 93.2243 113.912C92.7764 114.099 92.3696 114.385 91.9458 114.63C92.3928 114.92 92.8293 115.439 93.2885 115.46C95.3215 115.552 97.361 115.501 99.8059 115.502ZM91.6414 97.6356C104.552 97.6355 117.463 97.6359 130.374 97.6341C130.918 97.634 131.472 97.674 131.999 97.5766C132.268 97.5269 132.721 97.1428 132.687 97.0323C132.587 96.7018 132.336 96.2525 132.055 96.1758C131.481 96.0188 130.848 96.0475 130.24 96.0471C120.59 96.0413 110.941 96.0428 101.292 96.043C95.1761 96.0431 89.0601 96.0196 82.945 96.0836C82.3632 96.0897 81.7871 96.6452 81.2084 96.9456C81.7639 97.1753 82.3149 97.5898 82.8758 97.6036C85.6602 97.6723 88.4471 97.6353 91.6414 97.6356ZM84.9366 138.218C83.4333 133.862 79.6366 131.729 75.6097 132.978C71.7304 134.181 69.5529 138.05 70.5766 141.921C71.5983 145.784 75.4243 148.13 79.3609 147.308C83.277 146.49 85.703 142.717 84.9366 138.218ZM75.675 154.443C75.1163 154.689 74.5289 154.885 74.0035 155.188C71.0668 156.883 69.6975 160.314 70.6159 163.602C71.4916 166.737 74.4556 168.977 77.7427 168.987C81.1058 168.997 84.0201 166.67 84.9459 163.43C86.2095 159.008 82.5358 153.11 75.675 154.443ZM77.4367 125.964C77.9739 125.912 78.518 125.898 79.0474 125.802C83.2666 125.042 85.9306 121.045 84.9766 116.928C84.0092 112.752 79.9319 110.288 75.8294 111.398C72.5029 112.299 70.1503 115.439 70.2956 118.785C70.4571 122.503 73.0127 125.179 77.4367 125.964ZM74.6174 189.796C77.7607 191.132 80.6336 190.658 83.023 188.248C85.2177 186.033 85.7844 183.337 84.6499 180.382C83.5198 177.439 80.5479 175.495 77.4956 175.641C74.1964 175.799 71.3917 178.074 70.5709 181.258C69.7023 184.627 71.0066 187.537 74.6174 189.796ZM93.8392 186.141C93.2049 186.377 92.5707 186.613 91.9364 186.85C92.5863 187.147 93.2352 187.446 93.8874 187.737C93.9441 187.763 94.0219 187.741 94.0899 187.741C103.404 187.741 112.719 187.742 122.033 187.738C122.508 187.738 123.002 187.772 123.448 187.647C123.706 187.575 124.099 187.157 124.055 187.003C123.964 186.689 123.662 186.29 123.37 186.211C122.86 186.074 122.293 186.142 121.75 186.142C112.571 186.14 103.393 186.141 93.8392 186.141ZM121.769 121.596C112.658 121.596 103.547 121.596 94.4359 121.597C93.8922 121.597 93.3307 121.53 92.8111 121.645C92.4841 121.718 92.22 122.073 91.9277 122.302C92.1755 122.581 92.3745 122.997 92.6829 123.108C93.1099 123.261 93.6192 123.204 94.0933 123.204C103.408 123.208 112.723 123.207 122.039 123.206C122.378 123.206 122.757 123.286 123.048 123.164C123.433 123.003 123.751 122.68 124.097 122.426C123.789 122.154 123.519 121.803 123.162 121.636C122.881 121.504 122.494 121.601 121.769 121.596ZM98.9899 166.17C106.602 166.17 114.213 166.17 121.825 166.169C122.301 166.169 122.798 166.245 123.245 166.129C123.566 166.045 123.819 165.701 124.103 165.473C123.861 165.196 123.665 164.764 123.368 164.677C122.863 164.529 122.295 164.58 121.753 164.579C112.578 164.575 103.403 164.576 94.2281 164.577C93.8205 164.577 93.3804 164.492 93.0141 164.618C92.6186 164.753 92.2921 165.09 91.9356 165.34C92.3161 165.615 92.6864 166.111 93.079 166.129C94.91 166.215 96.7472 166.169 98.9899 166.17ZM109.602 144.599C113.949 144.599 118.297 144.62 122.643 144.566C123.132 144.56 123.615 144.123 124.101 143.886C123.619 143.643 123.138 143.19 122.655 143.188C112.875 143.147 103.094 143.15 93.3128 143.178C92.8224 143.179 92.3329 143.476 91.6743 143.69C92.0525 144.146 92.1756 144.427 92.3024 144.429C97.9328 144.501 103.563 144.549 109.602 144.599Z" fill="#FEFEFF"/>
<path d="M157.842 149.627C174.333 143.682 190.902 154.266 193.617 170.066C196.29 185.625 185.849 198.731 172.165 201.212C154.36 204.44 138.654 190.106 140.533 172.093C141.653 161.349 147.603 153.81 157.842 149.627ZM164.538 186.142C170.331 180.412 176.153 174.71 181.897 168.931C183.363 167.456 183.195 165.373 181.78 164.004C180.309 162.58 178.475 162.556 176.884 164.097C174.102 166.791 171.375 169.541 168.658 172.301C166.765 174.224 164.927 176.201 162.782 178.45C160.908 176.437 159.386 174.705 157.757 173.08C156.097 171.424 153.932 171.371 152.511 172.82C151.018 174.342 151.107 176.278 152.832 178.04C155.208 180.467 157.654 182.827 160.02 185.264C161.248 186.528 162.602 186.937 164.538 186.142Z" fill="#58D8A2"/>
<path d="M162.945 42.6469C167.223 43.4131 171.507 44.1446 175.771 44.9843C176.383 45.1049 177.064 45.6508 177.371 46.1934C177.501 46.4242 176.821 47.2286 176.384 47.6371C175.843 48.1416 175.117 48.4478 174.578 48.9539C174.304 49.2113 174.265 49.719 174.12 50.1135C174.537 50.1535 174.969 50.2764 175.366 50.2065C175.672 50.1527 175.959 49.8833 176.215 49.6635C177.448 48.6032 178.572 48.0294 180.3 49.0385C181.946 49.9995 183.535 49.1168 184.918 47.9102C185.446 47.4492 186.297 46.9669 186.913 47.0623C190.132 47.561 193.315 48.2827 196.525 48.8428C198.087 49.1153 198.561 49.9334 198.284 51.4229C195.694 65.3065 193.118 79.1926 190.545 93.0793C190.232 94.7682 189.368 95.2253 187.636 94.8927C178.301 93.1004 168.944 91.4213 159.411 89.631C159.228 89.5588 159.187 89.4278 159.191 89.2346C159.197 87.089 159.105 85.1307 159.228 83.186C159.345 81.3238 158.931 79.7332 157.742 78.4097C166.299 79.9486 174.688 81.5187 183.09 83.0192C183.755 83.1379 184.507 82.7734 185.218 82.6334C184.657 82.2753 184.137 81.7061 183.531 81.5906C173.95 79.7654 164.356 78.0056 154.77 76.2069C153.877 76.0393 153.111 75.8947 152.862 77.145C152.359 77.1736 152.024 77.1983 151.688 77.223C149.886 76.8081 148.084 76.3932 146.087 75.9332C146.23 74.9509 146.401 73.7815 146.625 72.4189C146.679 72.2256 146.798 72.1866 147 72.2051C151.418 72.2329 155.633 72.2051 159.848 72.2683C161.751 72.2969 162.804 71.5186 163.119 69.62C170.609 70.9979 177.926 72.3669 185.256 73.669C185.775 73.7612 186.381 73.3598 186.947 73.1879C186.526 72.8553 186.145 72.3098 185.678 72.2218C178.098 70.7943 170.507 69.4248 162.909 67.9776C162.9 67.913 162.861 67.7883 162.864 67.5953C162.887 64.8876 162.906 62.3728 163.096 59.8677C171.131 61.3162 178.994 62.7681 186.866 64.1657C187.417 64.2636 188.04 63.9599 188.629 63.8429C188.186 63.462 187.79 62.8311 187.293 62.7374C179.173 61.2071 171.04 59.7448 162.9 58.2009C162.889 58.1346 162.855 58.0051 162.86 57.8114C162.892 52.6274 162.918 47.6371 162.945 42.6469Z" fill="#FDCD35"/>
<path d="M33.4824 168.496C37.0417 171.77 37.9503 178.718 35.4838 183.801C31.0947 192.847 18.625 194.641 11.8864 187.181C11.496 186.748 11.2916 186.148 11.0954 185.41C11.4549 184.889 11.6787 184.532 11.9901 184.285C16.1361 181.001 20.2958 177.734 24.4486 174.458C25.7134 173.46 26.9673 172.449 28.2262 171.444C28.3594 171.587 28.4925 171.731 28.6257 171.875C28.2637 172.42 27.9448 173 27.5329 173.505C24.4612 177.267 23.3057 181.491 24.5174 186.243C24.6882 186.913 25.2816 187.475 25.6794 188.087C25.8444 187.414 26.2745 186.679 26.1324 186.079C25.078 181.628 26.2016 177.794 29.0698 174.323C30.6203 172.446 32.0166 170.442 33.4824 168.496Z" fill="#CDCDCE"/>
<path d="M59.5542 153.944C59.5909 155.233 59.4601 156.553 59.6979 157.804C60.2443 160.677 58.6376 162.089 56.3716 163.105C50.9006 165.556 45.6999 165.241 40.9377 161.313C42.0192 160.32 43.0806 159.575 44.0211 158.7C48.4361 154.59 53.3593 152.209 59.5542 153.944Z" fill="#DCD9EA"/>
<path d="M39.1826 159.338C39.1118 159.331 39.0411 159.325 38.8676 159.097C37.8224 155.445 37.77 152.014 38.871 148.492C39.4222 147.488 39.7688 146.512 40.3238 145.674C43.918 140.244 49.1103 138.074 55.4264 138.497C52.2252 142.587 49.0555 146.537 45.9328 150.523C43.6507 153.436 41.4304 156.398 39.1826 159.338Z" fill="#DDD9EB"/>
<path d="M57.1503 138.399C58.9567 138.333 59.6745 139.3 59.6679 141.005C59.6538 144.642 59.66 148.28 59.4665 152.108C53.7766 150.992 48.9831 152.322 44.8135 156.105C44.2822 156.587 43.5632 156.863 42.9053 157.207C42.8795 157.179 42.8256 157.127 42.8782 156.999C45.3536 153.777 47.7965 150.699 50.1937 147.585C52.5368 144.542 54.8334 141.463 57.1503 138.399Z" fill="#DCD8EA"/>
<path d="M9.76729 183.773C5.02496 174.761 11.626 163.514 21.7906 163.202C25.157 163.099 28.2064 163.862 31.0015 165.965C31.0567 166.104 31.0302 166.132 30.8512 166.149C30.1334 166.129 29.5781 166.164 29.0582 166.044C19.1651 163.773 9.56117 172.597 11.0372 182.664C10.5672 183.107 10.1673 183.44 9.76729 183.773Z" fill="#FCFCFD"/>
<path d="M134.073 178.385C133.394 171.316 135.023 164.797 138.933 158.621C140.606 158.381 142.07 158.309 143.605 158.305C143.676 158.372 143.817 158.507 143.817 158.507C140.03 164.471 138.218 170.943 138.962 178.41C137.296 178.41 135.779 178.41 134.073 178.385Z" fill="#E3E1E6"/>
<path d="M151.307 200.405C142.078 196.711 136.721 189.8 134.314 180.237C138.929 179.909 138.931 179.908 140.355 184.074C142.522 190.412 146.554 195.28 152.265 199.056C151.973 199.499 151.696 199.92 151.307 200.405Z" fill="#E5E5E6"/>
<path d="M9.78725 183.906C10.1675 183.44 10.5674 183.107 11.1697 182.625C14.0449 180.394 16.7467 178.349 19.3839 176.223C23.2873 173.078 27.145 169.876 31.1293 166.637C31.3004 166.431 31.3643 166.286 31.4281 166.141C32.1022 166.839 32.7762 167.537 33.4663 168.365C32.0165 170.442 30.6203 172.446 29.0697 174.323C26.2015 177.794 25.0779 181.628 26.1323 186.079C26.2744 186.679 25.8444 187.414 25.6793 188.087C25.2815 187.475 24.6882 186.913 24.5174 186.243C23.3057 181.491 24.4611 177.267 27.5328 173.505C27.9448 173 28.2636 172.42 28.6256 171.875C28.4925 171.731 28.3593 171.587 28.2262 171.444C26.9673 172.449 25.7133 173.46 24.4485 174.458C20.2958 177.734 16.136 181.001 11.9901 184.285C11.6787 184.532 11.4548 184.889 11.0678 185.265C10.5659 184.903 10.1865 184.471 9.78725 183.906ZM29.2051 170.724C29.1559 170.825 29.1067 170.925 29.0576 171.025C29.1331 171.056 29.2086 171.086 29.2841 171.117C29.3189 170.953 29.3537 170.79 29.5172 170.605C29.4755 170.614 29.4338 170.622 29.2051 170.724Z" fill="#9781C3"/>
<path d="M57.1413 138.266C54.8336 141.463 52.537 144.542 50.1939 147.585C47.7967 150.699 45.3538 153.777 42.7904 157.048C42.5426 157.317 42.4799 157.433 42.3997 157.596C42.3728 157.598 42.408 157.576 42.548 157.545C42.7456 157.435 42.8385 157.334 42.9314 157.234C43.5634 156.863 44.2824 156.588 44.8136 156.105C48.9833 152.322 53.7768 150.992 59.4529 152.302C59.6159 152.743 59.6014 153.18 59.5707 153.78C53.3595 152.209 48.4363 154.59 44.0213 158.7C43.0808 159.575 42.0194 160.321 40.8839 161.18C40.2339 160.685 39.7136 160.136 39.1881 159.463C41.4306 156.398 43.6508 153.436 45.933 150.523C49.0556 146.537 52.2253 142.587 55.5075 138.41C55.8697 137.986 56.0993 137.775 56.3289 137.564C56.5966 137.754 56.8644 137.943 57.1413 138.266Z" fill="#9780C4"/>
<path d="M56.2558 137.437C56.0991 137.775 55.8695 137.986 55.559 138.285C49.1102 138.074 43.918 140.244 40.3237 145.674C39.7688 146.512 39.4222 147.488 38.7669 148.383C38.7574 145.827 38.9603 143.289 39.1632 140.751C42.8227 135.887 50.1176 134.412 56.2558 137.437Z" fill="#EBE7FC"/>
<path d="M151.77 77.34C152.024 77.1983 152.359 77.1736 152.979 77.2456C154.702 77.7027 156.14 78.063 157.578 78.4232C158.931 79.7332 159.345 81.3238 159.228 83.186C159.105 85.1307 159.197 87.089 159.021 89.241C157.33 89.1563 155.813 88.8718 154.296 88.5873C154.285 86.7082 154.232 84.8282 154.272 82.9502C154.321 80.7248 153.578 78.8834 151.77 77.34Z" fill="#E5B930"/>
<path d="M59.6278 167.583C58.8799 167.936 58.1494 168.076 57.436 168.277C52.5471 169.655 48.0921 168.886 44.1052 165.485C50.6801 166.751 50.7353 166.744 59.653 163.343C59.653 164.752 59.653 166.075 59.6278 167.583Z" fill="#CEC8E3"/>
<path d="M39.0377 140.816C38.9603 143.289 38.7574 145.827 38.6587 148.474C37.77 152.014 37.8224 155.445 38.775 159.044C35.2808 155.72 34.3875 149.092 36.8286 144.105C37.3871 142.964 38.2106 141.953 39.0377 140.816Z" fill="#FBFAFD"/>
<path d="M141.22 156.951C141.951 155.955 142.481 154.645 143.451 154.021C146.294 152.193 149.312 150.638 152.416 148.971C152.293 149.637 152.187 150.478 151.713 150.952C149.203 153.466 146.602 155.888 143.924 158.424C143.817 158.507 143.676 158.372 143.626 158.153C142.791 157.607 142.006 157.279 141.22 156.951Z" fill="#E3E1E6"/>
<path d="M159.194 91.035C159.194 91.035 159.228 91.1752 159.23 91.2468C159.417 93.1941 158.756 93.9001 156.838 93.2051C156.188 92.9694 155.404 93.1022 154.503 93.071C154.317 92.2597 154.308 91.444 154.47 90.4636C156.158 90.5443 157.676 90.7896 159.194 91.035Z" fill="#BAB4CD"/>
<path d="M34.7866 163.813C34.1113 164.279 33.5386 164.637 32.7391 165.138C33.3525 162.177 34.3436 161.174 37.2991 160.851C36.4958 161.803 35.6926 162.754 34.7866 163.813Z" fill="black"/>
<path d="M159.196 90.8673C157.675 90.7897 156.157 90.5443 154.481 90.2896C154.314 89.8286 154.305 89.377 154.296 88.7564C155.813 88.8718 157.33 89.1563 159.017 89.4342C159.187 89.4278 159.228 89.5588 159.238 89.6266C159.232 90.0294 159.215 90.3645 159.196 90.8673Z" fill="#654795"/>
<path d="M146.798 72.1866C146.798 72.1866 146.679 72.2256 146.62 72.2475C146.224 72.2592 145.886 72.2491 145.38 72.2275C145.374 71.1158 145.537 70.0155 145.706 68.751C146.154 68.584 146.595 68.5812 147.185 68.7427C147.154 70.0002 146.976 71.0934 146.798 72.1866Z" fill="#654795"/>
<path d="M31.3426 166.121C31.3642 166.286 31.3004 166.431 31.1222 166.495C31.0154 166.32 31.0229 166.226 31.0304 166.132C31.0304 166.132 31.0568 166.104 31.0701 166.089C31.0834 166.074 31.2572 166.1 31.3426 166.121Z" fill="#FCFCFD"/>
<path d="M141.803 23.1079C142.325 22.7626 142.913 22.566 143.061 22.1939C144.016 19.8095 146.002 20.0283 147.983 20.0707C150.294 20.1201 152.607 20.1161 154.918 20.0724C156.669 20.0393 157.566 20.7102 157.562 22.5795C157.535 36.5866 157.538 50.5938 157.56 64.6009C157.562 66.2206 156.918 66.9573 155.258 66.9547C141.183 66.9328 127.108 66.93 113.033 66.9589C111.358 66.9623 110.685 66.1852 110.685 64.6148C110.686 50.5396 110.689 36.4645 110.679 22.3894C110.678 20.8217 111.578 20.124 112.97 20.1157C120.178 20.0728 127.385 20.069 134.592 20.1319C135.113 20.1365 135.836 20.6782 136.074 21.1623C136.232 21.4838 135.777 22.2124 135.445 22.6431C134.952 23.2852 134.274 23.7859 133.782 24.4291C133.598 24.6695 133.717 25.1412 133.698 25.5074C134.065 25.4785 134.441 25.4888 134.794 25.4039C134.967 25.3623 135.117 25.1595 135.244 25.0029C136.461 23.5044 137.761 22.418 139.887 23.4491C140.331 23.6645 141.065 23.2822 141.803 23.1079ZM134.911 44.9483C129.824 44.9489 124.737 44.9251 119.65 44.9851C119.099 44.9916 118.552 45.483 118.004 45.7495C118.518 46.0175 119.031 46.5167 119.546 46.5192C129.313 46.5655 139.081 46.566 148.848 46.5175C149.37 46.5149 149.89 45.9967 150.411 45.7185C149.857 45.462 149.306 44.9906 148.749 44.983C144.273 44.922 139.796 44.9486 134.911 44.9483ZM143.889 37.0895C145.449 37.0895 147.015 37.1642 148.568 37.0528C149.197 37.0076 149.798 36.5568 150.412 36.2906C149.817 36.02 149.223 35.5212 148.624 35.5145C143.198 35.4536 137.77 35.4784 132.343 35.4787C128.001 35.479 123.66 35.4622 119.318 35.5081C118.873 35.5128 118.431 35.8948 117.988 36.1017C118.413 36.4278 118.796 36.8614 119.276 37.0473C119.69 37.2077 120.213 37.0891 120.688 37.0892C128.286 37.0897 135.884 37.0895 143.889 37.0895ZM128.38 54.6498C125.327 54.651 122.273 54.6252 119.222 54.6851C118.808 54.6932 118.402 55.131 117.993 55.3698C118.381 55.6625 118.743 56.0006 119.166 56.229C119.378 56.3437 119.698 56.2639 119.969 56.2639C129.467 56.2649 138.966 56.2825 148.464 56.2264C149.118 56.2226 149.769 55.6676 150.422 55.3689C149.792 55.1293 149.163 54.6863 148.531 54.6814C141.95 54.6304 135.369 54.6498 128.38 54.6498Z" fill="#F677AC"/>
<path d="M162.931 42.5925C162.918 47.6371 162.892 52.6274 162.693 57.8124C161.42 57.8423 160.32 57.6773 159.219 57.5123C159.19 52.4613 159.161 47.4103 159.157 42.1634C160.299 42.1331 161.416 42.2985 162.702 42.4498C162.87 42.4356 162.917 42.5381 162.931 42.5925Z" fill="#E5B930"/>
<path d="M147 72.2051C146.976 71.0934 147.154 70.0002 147.351 68.7437C150.635 68.5569 153.901 68.5333 157.518 68.5491C159.536 68.8607 161.202 69.1329 162.894 69.4506C162.918 69.4961 162.949 69.595 162.949 69.595C162.805 71.5186 161.751 72.2969 159.848 72.2683C155.634 72.205 151.418 72.2329 147 72.2051Z" fill="#E5B930"/>
<path d="M162.926 59.858C162.906 62.3728 162.887 64.8876 162.696 67.5991C161.312 67.6348 160.099 67.4738 158.886 67.3128C158.968 64.7246 159.05 62.1364 159.328 59.3683C160.635 59.337 161.747 59.4854 162.884 59.6871C162.911 59.7403 162.926 59.858 162.926 59.858Z" fill="#E5B930"/>
<path d="M142.788 18.5369C142.92 20.565 141.992 21.7259 140.188 21.9079C138.764 22.0517 137.715 21.218 137.337 19.8051C136.95 18.3589 137.591 17.2817 138.86 16.6129C140.358 15.8238 141.622 16.426 142.788 18.5369Z" fill="#F9F8FC"/>
<path d="M158.745 67.3316C160.099 67.4738 161.312 67.6347 162.693 67.792C162.861 67.7882 162.9 67.913 162.894 68.1476C162.882 68.7232 162.876 69.0642 162.869 69.4051C161.202 69.1329 159.535 68.8607 157.708 68.541C157.899 68.1125 158.252 67.7315 158.745 67.3316Z" fill="#71508E"/>
<path d="M162.858 59.6339C161.747 59.4854 160.636 59.337 159.356 59.1779C159.198 58.7261 159.207 58.2849 159.218 57.678C160.32 57.6773 161.421 57.8423 162.688 58.0062C162.855 58.0052 162.89 58.1346 162.886 58.3714C162.874 58.95 162.866 59.292 162.858 59.6339Z" fill="#75538A"/>
<path d="M56.2582 67.3235C40.586 75.3532 23.0909 64.2884 23.6836 46.8732C24.055 35.9613 33.5721 26.4841 44.5093 26.1349C56.2784 25.7592 66.3359 34.2136 67.4033 45.4762C68.3077 55.018 64.4806 62.2295 56.2582 67.3235ZM47.6614 50.8019C49.2466 49.0302 49.6862 47.0221 48.1849 46.0181C46.0761 44.6078 46.4727 42.7655 46.4502 40.8804C46.4357 39.6598 46.5268 38.4303 46.4007 37.2224C46.3527 36.763 45.8295 36.3532 45.5229 35.9208C45.3031 36.3517 44.9081 36.7768 44.8934 37.2147C44.825 39.2471 44.8847 41.2835 44.845 43.3175C44.8352 43.8174 44.7845 44.4642 44.4804 44.7872C42.0886 47.3273 42.0682 47.3081 38.2755 47.3082C37.4616 47.3082 36.6354 47.2239 35.8383 47.3395C35.3221 47.4144 34.8483 47.7818 34.3555 48.0181C34.8736 48.3141 35.3765 48.8279 35.9127 48.8654C37.5326 48.9787 39.1735 48.813 40.7893 48.9521C41.4654 49.0103 42.2841 49.4057 42.7176 49.9187C44.0541 51.5004 45.5421 51.9139 47.6614 50.8019ZM58.7347 36.1161C58.8732 35.5594 59.0117 35.0027 59.1502 34.4461C58.5913 34.6549 57.8928 34.726 57.5129 35.1114C57.1322 35.4974 57.0696 36.1972 56.8677 36.7594C57.4208 36.6127 57.9739 36.466 58.7347 36.1161ZM32.7408 61.8671C33.2827 61.3852 33.9145 60.9666 34.3214 60.3894C34.4794 60.1653 34.1293 59.583 34.0107 59.1638C33.4235 59.5455 32.6949 59.8221 32.3031 60.3491C32.0746 60.6563 32.3851 61.3644 32.7408 61.8671ZM45.4636 28.9453C45.3639 29.9509 45.2642 30.9565 45.1645 31.9621C45.4625 31.9658 45.7605 31.9695 46.0585 31.9732C45.9755 30.9683 45.8925 29.9634 45.4636 28.9453ZM63.0732 48.9151C63.6533 48.6272 64.2333 48.3392 64.8134 48.0512C64.4788 47.8046 64.1328 47.3391 63.812 47.3558C63.0865 47.3935 62.3735 47.6694 61.6554 47.8483C62.0156 48.2015 62.3758 48.5546 63.0732 48.9151ZM26.4812 47.9342C26.8684 49.6002 28.1274 48.7892 29.0562 48.7761C29.2613 48.7732 29.4586 48.2176 29.6595 47.9165C28.8821 47.7166 28.1106 47.485 27.3232 47.338C27.1114 47.2984 26.8516 47.516 26.4812 47.9342ZM45.8091 64.1003C44.0894 64.4446 45.0812 65.7611 44.9511 66.6499C44.927 66.8146 45.4773 67.0633 45.7626 67.2733C45.9834 66.5083 46.238 65.7504 46.4025 64.9735C46.4465 64.7653 46.2154 64.4989 45.8091 64.1003ZM34.5671 36.1561C34.08 35.6029 33.6561 34.9616 33.0725 34.543C32.8601 34.3907 32.267 34.7691 31.8476 34.9054C32.2704 35.4873 32.6064 36.1815 33.1529 36.603C33.4206 36.8095 34.0793 36.5092 34.5671 36.1561ZM56.8565 60.3488C57.2782 60.7745 57.6442 61.2953 58.1438 61.5879C58.4149 61.7467 58.9135 61.5171 59.3095 61.4626C58.8857 60.7819 58.5077 60.0614 57.9888 59.4631C57.9106 59.3728 57.1752 59.8523 56.8565 60.3488Z" fill="#FEFEFE"/>
<path d="M178.824 44.6266C179.372 42.8641 180.404 41.9052 182.16 42.2585C183.663 42.561 184.542 43.6365 184.423 45.1652C184.298 46.7631 183.309 47.7915 181.632 47.7667C179.755 47.7391 178.864 46.6177 178.824 44.6266Z" fill="#F9F8FC"/>
<path d="M19.9381 19.8551C18.9949 20.9547 17.9709 21.838 16.7362 20.9368C15.9889 20.3913 15.196 19.2859 15.2305 18.466C15.2654 17.6363 16.1421 16.5394 16.9395 16.1453C17.5225 15.8571 18.685 16.3444 19.3913 16.7957C20.4545 17.4751 20.8753 18.5238 19.9381 19.8551Z" fill="black"/>
<path d="M25.3012 119.634C24.1207 121.831 22.8844 122.518 21.5264 121.732C19.3755 120.486 19.4442 118.398 21.8954 116.9C23.168 117.897 24.2346 118.766 25.3012 119.634Z" fill="black"/>
<path d="M25.3325 119.475C24.2344 118.766 23.1678 117.897 22.0419 116.899C23.9614 116.195 24.9637 116.949 25.3325 119.475Z" fill="#E0DAF9"/>
<path d="M85.7467 60.012C86.3737 61.9731 85.6731 63.2372 83.9757 63.8574C82.4845 64.4022 81.2422 63.7459 80.608 62.3879C79.9869 61.0578 80.1989 59.7196 81.5243 58.7994C82.8849 57.8547 84.3095 58.2349 85.7467 60.012Z" fill="#E0DAF9"/>
<path d="M117.154 135.452C126.104 135.455 134.85 135.446 143.596 135.457C143.633 135.788 143.67 136.118 143.707 136.448C143.098 136.653 142.489 137.036 141.88 137.037C125.78 137.07 109.681 137.071 93.5811 137.029C93.0307 137.028 92.4816 136.525 91.9318 136.256C92.5271 135.988 93.1208 135.491 93.7178 135.487C101.462 135.434 109.206 135.452 117.154 135.452Z" fill="#7557B1"/>
<path d="M99.6025 115.502C97.3615 115.501 95.322 115.552 93.289 115.46C92.8298 115.439 92.3933 114.92 91.9463 114.63C92.3701 114.385 92.7769 114.099 93.2248 113.912C93.4564 113.815 93.761 113.892 94.0326 113.892C109.854 113.892 125.676 113.892 141.498 113.893C141.905 113.893 142.346 113.816 142.71 113.946C143.035 114.061 143.276 114.414 143.554 114.662C143.231 114.936 142.947 115.349 142.577 115.452C142.071 115.592 141.5 115.501 140.957 115.501C127.24 115.502 113.523 115.502 99.6025 115.502Z" fill="#6E4EAD"/>
<path d="M91.4373 97.6356C88.4471 97.6353 85.6602 97.6723 82.8758 97.6036C82.3149 97.5897 81.7639 97.1753 81.2084 96.9456C81.7871 96.6452 82.3632 96.0897 82.9451 96.0836C89.0601 96.0196 95.1761 96.0431 101.292 96.043C110.941 96.0428 120.59 96.0413 130.24 96.0471C130.848 96.0474 131.481 96.0188 132.055 96.1757C132.336 96.2525 132.587 96.7018 132.687 97.0322C132.721 97.1427 132.268 97.5269 131.999 97.5766C131.472 97.674 130.918 97.634 130.375 97.6341C117.463 97.6359 104.552 97.6355 91.4373 97.6356Z" fill="#785AB2"/>
<path d="M84.9676 138.379C85.7032 142.717 83.2772 146.49 79.3612 147.308C75.4245 148.13 71.5985 145.784 70.5769 141.921C69.5531 138.05 71.7306 134.181 75.6099 132.978C79.6368 131.729 83.4336 133.862 84.9676 138.379ZM80.9015 144.896C83.9697 142.385 84.5165 139.04 82.2934 136.382C80.3197 134.022 76.9047 133.547 74.4013 135.284C71.9529 136.983 71.2041 140.257 72.6669 142.867C74.2169 145.633 77.3915 146.502 80.9015 144.896Z" fill="#6F4FAE"/>
<path d="M75.8417 154.396C82.5363 153.11 86.21 159.008 84.9464 163.43C84.0205 166.67 81.1062 168.997 77.7432 168.987C74.456 168.977 71.492 166.737 70.6164 163.602C69.6979 160.314 71.0673 156.883 74.004 155.188C74.5294 154.885 75.1167 154.689 75.8417 154.396ZM82.0502 165.51C82.2837 165.176 82.5426 164.857 82.7466 164.506C84.3296 161.784 83.6445 158.697 81.0395 156.767C78.9272 155.201 75.5445 155.568 73.5969 157.574C71.3712 159.866 71.3013 163.177 73.4301 165.479C75.6699 167.902 78.9479 168 82.0502 165.51Z" fill="#6D4DAD"/>
<path d="M77.2746 125.943C73.0132 125.179 70.4576 122.503 70.2961 118.785C70.1508 115.439 72.5034 112.299 75.8299 111.398C79.9324 110.288 84.0097 112.752 84.977 116.928C85.9311 121.045 83.2671 125.042 79.0479 125.802C78.5185 125.898 77.9744 125.912 77.2746 125.943ZM82.506 121.835C84.152 119.457 83.9456 117.062 82.2638 114.88C80.8405 113.033 78.815 112.297 76.4807 112.836C74.0331 113.401 72.1504 115.548 71.8907 117.943C71.6395 120.26 73.203 122.873 75.4187 123.838C77.9294 124.932 80.1667 124.362 82.506 121.835Z" fill="#6E4DAD"/>
<path d="M74.4779 189.729C71.0069 187.537 69.7026 184.627 70.5713 181.258C71.392 178.074 74.1967 175.799 77.4959 175.641C80.5482 175.495 83.5201 177.439 84.6502 180.382C85.7847 183.337 85.218 186.033 83.0233 188.248C80.6339 190.658 77.7611 191.132 74.4779 189.729ZM83.1367 180.895C82.9127 180.478 82.7233 180.038 82.4591 179.649C80.9099 177.364 77.7035 176.644 75.0532 177.968C72.6323 179.177 71.3946 182.06 72.1934 184.631C73.168 187.766 76.1644 189.538 79.0867 188.707C82.6488 187.694 84.2386 184.819 83.1367 180.895Z" fill="#6E4EAD"/>
<path d="M141.03 156.942C142.006 157.279 142.791 157.607 143.556 158.086C142.07 158.309 140.606 158.381 138.957 158.485C124.015 158.496 109.259 158.474 94.5035 158.452C93.6438 158.451 92.784 158.452 91.9243 158.452C91.8524 158.261 91.7805 158.07 91.7085 157.88C92.0378 157.6 92.3316 157.158 92.704 157.077C93.3555 156.935 94.0552 157.005 94.7348 157.004C110.103 156.979 125.472 156.956 141.03 156.942Z" fill="#6644A7"/>
<path d="M94.0269 186.141C103.393 186.141 112.571 186.14 121.75 186.142C122.293 186.142 122.861 186.074 123.37 186.211C123.662 186.289 123.964 186.689 124.055 187.003C124.099 187.157 123.706 187.575 123.448 187.647C123.002 187.771 122.508 187.738 122.034 187.738C112.719 187.741 103.405 187.741 94.0901 187.741C94.0222 187.741 93.9443 187.763 93.8877 187.737C93.2355 187.445 92.5865 187.147 91.9367 186.85C92.5709 186.613 93.2052 186.377 94.0269 186.141Z" fill="#7151AE"/>
<path d="M121.961 121.596C122.494 121.601 122.881 121.504 123.162 121.636C123.519 121.803 123.789 122.154 124.097 122.426C123.75 122.68 123.433 123.003 123.048 123.164C122.756 123.286 122.378 123.206 122.038 123.206C112.723 123.207 103.408 123.208 94.093 123.204C93.6189 123.204 93.1096 123.261 92.6826 123.108C92.3742 122.997 92.1752 122.581 91.9274 122.302C92.2197 122.073 92.4838 121.718 92.8108 121.645C93.3304 121.53 93.8919 121.597 94.4356 121.597C103.547 121.596 112.658 121.596 121.961 121.596Z" fill="#7354AF"/>
<path d="M98.7864 166.17C96.7476 166.169 94.9104 166.215 93.0794 166.129C92.6868 166.111 92.3165 165.615 91.9359 165.34C92.2925 165.09 92.6189 164.753 93.0144 164.618C93.3807 164.492 93.8209 164.577 94.2285 164.577C103.403 164.576 112.578 164.575 121.753 164.579C122.295 164.58 122.864 164.529 123.369 164.677C123.666 164.764 123.862 165.196 124.103 165.473C123.82 165.701 123.566 166.045 123.245 166.129C122.799 166.245 122.301 166.169 121.825 166.169C114.214 166.17 106.602 166.17 98.7864 166.17Z" fill="#7354AF"/>
<path d="M109.398 144.599C103.564 144.549 97.933 144.501 92.3026 144.429C92.1759 144.427 92.0527 144.146 91.6745 143.69C92.3331 143.476 92.8227 143.179 93.3131 143.178C103.094 143.15 112.875 143.147 122.656 143.188C123.138 143.19 123.619 143.643 124.101 143.886C123.615 144.123 123.132 144.56 122.643 144.566C118.297 144.62 113.95 144.599 109.398 144.599Z" fill="#6745A8"/>
<path d="M164.395 186.212C162.602 186.937 161.248 186.528 160.02 185.264C157.654 182.827 155.209 180.467 152.832 178.04C151.107 176.278 151.018 174.342 152.511 172.82C153.932 171.371 156.098 171.424 157.757 173.08C159.386 174.705 160.908 176.437 162.782 178.45C164.927 176.201 166.765 174.224 168.658 172.301C171.375 169.541 174.103 166.791 176.884 164.097C178.475 162.556 180.309 162.58 181.78 164.004C183.195 165.373 183.363 167.456 181.898 168.931C176.153 174.71 170.331 180.412 164.395 186.212ZM157.965 181.048C158.879 181.959 159.786 182.877 160.706 183.781C162.419 185.466 163.273 185.485 164.963 183.8C170.013 178.766 175.041 173.708 180.098 168.681C181.149 167.635 182.003 166.498 180.767 165.189C179.482 163.829 178.352 164.733 177.312 165.779C173.051 170.066 168.772 174.336 164.492 178.604C163.98 179.115 163.421 179.579 162.656 180.27C160.595 178.145 158.676 176.14 156.725 174.166C155.798 173.227 154.685 172.945 153.667 173.926C152.628 174.926 152.926 176.002 153.874 176.952C155.169 178.25 156.465 179.546 157.965 181.048Z" fill="#694AAA"/>
<path d="M157.742 78.4097C156.14 78.063 154.702 77.7027 153.147 77.2418C153.111 75.8947 153.876 76.0393 154.77 76.2069C164.356 78.0056 173.95 79.7655 183.531 81.5906C184.137 81.7061 184.657 82.2753 185.218 82.6334C184.506 82.7734 183.755 83.138 183.09 83.0192C174.688 81.5187 166.299 79.9486 157.742 78.4097Z" fill="#704D9F"/>
<path d="M162.884 59.6871C162.866 59.2919 162.874 58.95 162.896 58.4376C171.04 59.7448 179.173 61.2071 187.293 62.7374C187.79 62.8311 188.186 63.462 188.629 63.8429C188.04 63.9599 187.417 64.2636 186.866 64.1657C178.994 62.768 171.131 61.3162 163.096 59.8676C162.926 59.8579 162.911 59.7403 162.884 59.6871Z" fill="#714EA0"/>
<path d="M162.894 69.4506C162.876 69.0642 162.883 68.7233 162.905 68.2123C170.507 69.4248 178.098 70.7943 185.678 72.2218C186.145 72.3098 186.527 72.8553 186.948 73.1879C186.382 73.3598 185.775 73.7612 185.256 73.669C177.927 72.367 170.609 70.9979 163.119 69.62C162.949 69.595 162.919 69.4961 162.894 69.4506Z" fill="#714EA0"/>
<path d="M30.8513 166.149C31.0229 166.226 31.0154 166.32 31.0149 166.556C27.1449 169.876 23.2872 173.078 19.3838 176.223C16.7466 178.349 14.0448 180.394 11.2396 182.514C9.56126 172.597 19.1652 163.773 29.0583 166.044C29.5782 166.164 30.1335 166.129 30.8513 166.149Z" fill="#CECECE"/>
<path d="M29.3882 170.627C29.3534 170.79 29.3186 170.953 29.2839 171.117C29.2084 171.086 29.1328 171.056 29.0573 171.025C29.1065 170.925 29.1557 170.825 29.2976 170.677C29.3905 170.629 29.3882 170.627 29.3882 170.627Z" fill="#CDCDCE"/>
<path d="M29.3914 170.63C29.4351 170.622 29.4781 170.614 29.4547 170.616C29.3883 170.627 29.3907 170.629 29.3914 170.63Z" fill="#CDCDCE"/>
<path d="M42.9055 157.207C42.8385 157.334 42.7456 157.435 42.5523 157.55C42.4519 157.565 42.4619 157.573 42.4619 157.573C42.4799 157.433 42.5426 157.317 42.7379 157.176C42.8258 157.127 42.8797 157.179 42.9055 157.207Z" fill="#DCD8EA"/>
<path d="M42.4495 157.56C42.4087 157.577 42.3724 157.599 42.4002 157.597C42.4644 157.573 42.454 157.565 42.4495 157.56Z" fill="#DCD8EA"/>
<path d="M135.115 44.9484C139.796 44.9486 144.273 44.922 148.749 44.983C149.306 44.9906 149.857 45.462 150.411 45.7185C149.89 45.9967 149.37 46.5149 148.847 46.5175C139.08 46.566 129.313 46.5655 119.546 46.5192C119.031 46.5167 118.518 46.0175 118.004 45.7495C118.552 45.483 119.098 44.9917 119.65 44.9851C124.737 44.9251 129.824 44.9489 135.115 44.9484Z" fill="#7248A8"/>
<path d="M143.686 37.0895C135.884 37.0895 128.286 37.0897 120.688 37.0892C120.213 37.0891 119.69 37.2077 119.276 37.0473C118.796 36.8614 118.413 36.4278 117.988 36.1017C118.431 35.8948 118.873 35.5128 119.318 35.5081C123.66 35.4622 128.001 35.479 132.343 35.4787C137.77 35.4784 143.198 35.4536 148.624 35.5145C149.223 35.5212 149.817 36.02 150.412 36.2906C149.798 36.5568 149.197 37.0076 148.567 37.0528C147.015 37.1642 145.449 37.0895 143.686 37.0895Z" fill="#7449A8"/>
<path d="M128.584 54.6497C135.369 54.6498 141.95 54.6304 148.53 54.6814C149.163 54.6863 149.791 55.1292 150.422 55.3688C149.769 55.6675 149.118 56.2226 148.463 56.2264C138.965 56.2825 129.467 56.2649 119.969 56.2639C119.698 56.2639 119.378 56.3437 119.166 56.2289C118.743 56.0005 118.38 55.6625 117.993 55.3697C118.402 55.1309 118.808 54.6932 119.221 54.6851C122.273 54.6252 125.327 54.651 128.584 54.6497Z" fill="#774AA8"/>
<path d="M47.5279 50.8924C45.542 51.9139 44.054 51.5004 42.7175 49.9187C42.284 49.4057 41.4653 49.0103 40.7892 48.9521C39.1734 48.813 37.5325 48.9786 35.9126 48.8654C35.3764 48.8279 34.8735 48.3141 34.3554 48.0181C34.8482 47.7818 35.322 47.4144 35.8382 47.3395C36.6353 47.2239 37.4615 47.3082 38.2754 47.3082C42.0681 47.3081 42.0885 47.3273 44.4803 44.7872C44.7844 44.4642 44.8351 43.8173 44.8449 43.3175C44.8846 41.2835 44.8249 39.2471 44.8933 37.2147C44.9081 36.7768 45.303 36.3517 45.5228 35.9207C45.8294 36.3532 46.3526 36.763 46.4006 37.2224C46.5267 38.4302 46.4356 39.6598 46.4501 40.8804C46.4726 42.7655 46.076 44.6078 48.1848 46.0181C49.6861 47.0221 49.2465 49.0302 47.5279 50.8924ZM46.7385 49.4272C47.612 48.4759 47.7721 47.3752 46.638 46.7004C46.0937 46.3765 44.9564 46.602 44.3535 46.9909C43.9889 47.226 43.8381 48.634 44.1099 48.844C44.7303 49.3235 45.6697 49.3902 46.7385 49.4272Z" fill="#7050AE"/>
<path d="M58.631 36.2177C57.974 36.466 57.4209 36.6127 56.8678 36.7595C57.0698 36.1972 57.1323 35.4975 57.513 35.1114C57.8929 34.7261 58.5915 34.6549 59.1503 34.4461C59.0118 35.0028 58.8733 35.5594 58.631 36.2177Z" fill="#7B5EB4"/>
<path d="M32.5973 61.8796C32.3854 61.3644 32.0749 60.6563 32.3034 60.3491C32.6952 59.8221 33.4238 59.5455 34.011 59.1638C34.1296 59.583 34.4797 60.1653 34.3217 60.3894C33.9148 60.9666 33.283 61.3851 32.5973 61.8796Z" fill="#7B5EB4"/>
<path d="M45.6368 28.9519C45.8928 29.9633 45.9758 30.9682 46.0589 31.9731C45.7609 31.9695 45.4629 31.9658 45.1649 31.9621C45.2645 30.9565 45.3642 29.9509 45.6368 28.9519Z" fill="#785AB2"/>
<path d="M62.9048 48.9115C62.3761 48.5546 62.0159 48.2015 61.6557 47.8483C62.3738 47.6694 63.0868 47.3935 63.8122 47.3558C64.1331 47.3391 64.4791 47.8046 64.8137 48.0512C64.2336 48.3392 63.6535 48.6272 62.9048 48.9115Z" fill="#7557B1"/>
<path d="M26.5476 47.7748C26.8517 47.516 27.1115 47.2984 27.3233 47.338C28.1106 47.485 28.8822 47.7166 29.6596 47.9165C29.4587 48.2176 29.2614 48.7732 29.0563 48.7761C28.1275 48.7891 26.8685 49.6002 26.5476 47.7748Z" fill="#785AB2"/>
<path d="M45.9599 64.1798C46.2155 64.4989 46.4466 64.7653 46.4025 64.9735C46.2381 65.7504 45.9834 66.5083 45.7626 67.2733C45.4774 67.0633 44.927 66.8146 44.9511 66.6499C45.0812 65.7611 44.0895 64.4446 45.9599 64.1798Z" fill="#7557B1"/>
<path d="M34.5642 36.2972C34.0794 36.5092 33.4208 36.8095 33.1531 36.603C32.6066 36.1816 32.2705 35.4873 31.8478 34.9054C32.2672 34.7691 32.8603 34.3907 33.0727 34.543C33.6563 34.9616 34.0802 35.6029 34.5642 36.2972Z" fill="#7354AF"/>
<path d="M56.8001 60.2085C57.1752 59.8523 57.9105 59.3728 57.9888 59.4631C58.5077 60.0614 58.8856 60.7819 59.3095 61.4626C58.9135 61.5171 58.4149 61.7467 58.1438 61.5879C57.6442 61.2953 57.2782 60.7745 56.8001 60.2085Z" fill="#6E4EAD"/>
<path d="M80.7622 144.971C77.3913 146.502 74.2167 145.633 72.6668 142.867C71.2039 140.257 71.9528 136.983 74.4011 135.284C76.9045 133.547 80.3196 134.022 82.2932 136.382C84.5163 139.04 83.9695 142.385 80.7622 144.971Z" fill="#A995F2"/>
<path d="M81.9442 165.62C78.9474 168 75.6694 167.902 73.4296 165.48C71.3008 163.177 71.3707 159.866 73.5964 157.574C75.544 155.568 78.9267 155.201 81.039 156.767C83.644 158.697 84.3291 161.784 82.7461 164.506C82.5421 164.857 82.2832 165.176 81.9442 165.62Z" fill="#A995F2"/>
<path d="M82.4138 121.957C80.1666 124.362 77.9292 124.932 75.4186 123.838C73.2028 122.873 71.6393 120.26 71.8906 117.943C72.1503 115.548 74.0329 113.401 76.4806 112.836C78.8148 112.297 80.8404 113.033 82.2637 114.88C83.9455 117.062 84.1518 119.457 82.4138 121.957Z" fill="#A994F1"/>
<path d="M83.1878 181.045C84.238 184.819 82.6483 187.694 79.0861 188.707C76.1638 189.538 73.1674 187.766 72.1928 184.631C71.394 182.06 72.6317 179.177 75.0527 177.968C77.7029 176.644 80.9093 177.364 82.4585 179.649C82.7227 180.038 82.9121 180.478 83.1878 181.045Z" fill="#A894F1"/>
<path d="M157.863 180.946C156.465 179.546 155.169 178.25 153.874 176.952C152.926 176.002 152.628 174.926 153.667 173.926C154.685 172.945 155.798 173.227 156.725 174.166C158.675 176.14 160.595 178.145 162.655 180.27C163.421 179.579 163.98 179.115 164.492 178.604C168.772 174.336 173.051 170.066 177.312 165.779C178.352 164.733 179.482 163.829 180.767 165.19C182.003 166.499 181.149 167.635 180.098 168.681C175.041 173.708 170.013 178.766 164.963 183.8C163.273 185.485 162.419 185.466 160.706 183.781C159.786 182.877 158.878 181.959 157.863 180.946Z" fill="#FBFAFD"/>
<path d="M46.6093 49.5259C45.67 49.3903 44.7306 49.3235 44.1101 48.844C43.8384 48.634 43.9892 47.226 44.3537 46.9909C44.9567 46.602 46.094 46.3766 46.6383 46.7004C47.7723 47.3752 47.6122 48.4759 46.6093 49.5259Z" fill="#A792F0"/>
</g>
<defs>
<clipPath id="clip0_100_346">
<rect width="209" height="209" fill="white"/>
</clipPath>
</defs>
</svg>
