<?xml version="1.0" encoding="UTF-8"?>
<svg version="1.1" xmlns="http://www.w3.org/2000/svg" width="500" height="500">
<path d="M0 0 C165 0 330 0 500 0 C500 165 500 330 500 500 C335 500 170 500 0 500 C0 335 0 170 0 0 Z " fill="transparent" transform="translate(0,0)"/>
<path d="M0 0 C10.02160578 6.97958644 15.84710798 16.34110435 19 28 C19.18175781 28.58007812 19.36351562 29.16015625 19.55078125 29.7578125 C23.71471474 50.54127185 15.82967235 74.09445084 4.45019531 91.35009766 C0.63878617 96.78860627 -3.29651766 102.29651766 -8 107 C-7.46187319 112.13580674 -5.47427411 117.14833854 -3.90429688 122.05859375 C-0.60089705 132.87152411 0.34591622 143.73811268 0.25 155 C0.24323242 156.17208008 0.23646484 157.34416016 0.22949219 158.55175781 C-0.09912733 186.63726302 -4.89735921 214.4282347 -14 241 C-13.39671875 240.57847656 -12.7934375 240.15695312 -12.171875 239.72265625 C-10.97304687 238.90087891 -10.97304687 238.90087891 -9.75 238.0625 C-8.96109375 237.51722656 -8.1721875 236.97195313 -7.359375 236.41015625 C-5.14623207 235.08740029 -3.5599312 234.25708711 -1 234 C-0.34 234.66 0.32 235.32 1 236 C0.7899792 238.57800534 0.21697008 239.7625506 -1.53125 241.67578125 C-2.1809375 242.21589844 -2.830625 242.75601563 -3.5 243.3125 C-4.21800781 243.91449219 -4.93601563 244.51648438 -5.67578125 245.13671875 C-8.7372982 247.59107771 -11.84261919 249.98410582 -14.96875 252.35546875 C-17.22170468 254.09616616 -17.22170468 254.09616616 -19.6875 256.9375 C-22 259 -22 259 -25.1875 259.375 C-28 259 -28 259 -30 258 C-30.2734375 255.65625 -30.2734375 255.65625 -30.375 252.5 C-30.75240951 246.05555463 -31.99106811 240.13005853 -33.62841797 233.9140625 C-34.67335933 229.85328029 -35.39387592 226.1950911 -35 222 C-34.01 221.01 -34.01 221.01 -33 220 C-30.97265625 220.140625 -30.97265625 220.140625 -29 221 C-28.05859375 222.609375 -28.05859375 222.609375 -27.4375 224.75 C-27.20289063 225.54792969 -26.96828125 226.34585938 -26.7265625 227.16796875 C-25.3786112 232.42208 -24.15494759 237.70034687 -23 243 C-10.70804069 207.58402535 -0.42339508 162.11950181 -11 125.0625 C-11.350625 123.81597656 -11.70125 122.56945312 -12.0625 121.28515625 C-12.371875 120.20105469 -12.68125 119.11695313 -13 118 C-13.34084671 116.66856754 -13.67849963 115.33623591 -14 114 C-14.94359375 114.5775 -15.8871875 115.155 -16.859375 115.75 C-24.74725505 120.38652934 -31.5599708 124.04310269 -41 122 C-44.67930728 119.90784488 -45.6704934 118.98851981 -47 115 C-47.50201239 108.87544882 -47.09928344 105.87482354 -43 101 C-38.05688901 96.55120011 -34.14606465 94.49885831 -27.515625 94.59765625 C-23.63825826 95.2177941 -20.54590407 96.9737691 -17.1640625 98.90625 C-14.95788365 100.22553789 -14.95788365 100.22553789 -12 100 C3.38808953 85.19194933 11.96614214 61.50153503 12.375 40.5625 C12.37734807 29.93515728 9.8240184 20.00601898 2.25 12.1953125 C-5.70160073 4.70962588 -12.36743241 3.41061979 -23.2421875 3.6484375 C-31.79073754 4.4481979 -39.10974096 7.99947446 -46 13 C-46.81726563 13.58394531 -47.63453125 14.16789062 -48.4765625 14.76953125 C-52.22354378 18.08149148 -54.38375113 22.16000441 -56.9375 26.41796875 C-59 29 -59 29 -61.75 29.86328125 C-62.4925 29.90839844 -63.235 29.95351562 -64 30 C-64.71353784 25.98634966 -64.52454158 23.9329737 -62.5 20.33203125 C-48.79004116 0.91851532 -22.98973486 -11.96240061 0 0 Z " fill="#333333" transform="translate(255,146)"/>
<path d="M0 0 C2.0625 0.4375 2.0625 0.4375 4 1 C4.32587197 7.10331041 3.5612623 11.29252639 1 16.8125 C0.68893311 17.50029541 0.37786621 18.18809082 0.05737305 18.89672852 C-2.83591879 25.06338455 -6.21227688 31.09381775 -11 36 C-13.23828125 36.78515625 -13.23828125 36.78515625 -15 37 C-14.8605892 30.72651421 -12.28459397 27.04873335 -8.8515625 21.90625 C-4.66036933 15.32766832 -1.67736443 8.78969095 -1 1 C-0.67 0.67 -0.34 0.34 0 0 Z " fill="#D5C9EF" transform="translate(282,204)"/>
<path d="M0 0 C2.52410465 1.14866481 4.66460419 2.47484355 7 4 C7 4.66 7 5.32 7 6 C4.91796875 7.47265625 4.91796875 7.47265625 2.1875 9.0625 C1.29417969 9.58972656 0.40085938 10.11695313 -0.51953125 10.66015625 C-4.82015905 12.98317253 -8.15820787 13.17932563 -13 13 C-13.33 12.67 -13.66 12.34 -14 12 C-13.91264228 7.45739857 -13.43911328 5.49138867 -10.375 2.0625 C-6.37961239 -0.37912576 -4.60241724 -0.72669746 0 0 Z " fill="#FFFFFF" transform="translate(229,248)"/>
<path d="M0 0 C1.32 0.33 2.64 0.66 4 1 C4.16682272 5.92127034 4.24828052 9.50343896 2 14 C0.68 13.67 -0.64 13.34 -2 13 C-2.05447047 11.58376784 -2.09300508 10.16691809 -2.125 8.75 C-2.14820313 7.96109375 -2.17140625 7.1721875 -2.1953125 6.359375 C-1.9828378 3.79268059 -1.28654105 2.2083933 0 0 Z " fill="#D5C9EF" transform="translate(285,179)"/>
</svg>
