<svg width="20" height="22" viewBox="0 0 20 22" fill="none" xmlns="http://www.w3.org/2000/svg">
<path d="M12.3201 18.07C12.3201 18.68 11.92 19.48 11.41 19.79L10.0001 20.7C8.69006 21.51 6.87006 20.6 6.87006 18.98V13.63C6.87006 12.92 6.47006 12.01 6.06006 11.51L2.22003 7.47C1.71003 6.96 1.31006 6.06001 1.31006 5.45001V3.13C1.31006 1.92 2.22008 1.01001 3.33008 1.01001H16.67C17.78 1.01001 18.6901 1.92 18.6901 3.03V5.25C18.6901 6.06 18.1801 7.07001 17.6801 7.57001M17.8701 16.12L16.8701 15.12M17.2701 12.32C17.2701 14.0873 15.8374 15.52 14.0701 15.52C12.3028 15.52 10.8701 14.0873 10.8701 12.32C10.8701 10.5527 12.3028 9.12 14.0701 9.12C15.8374 9.12 17.2701 10.5527 17.2701 12.32Z" stroke="#F5F5F5" stroke-width="1.5" stroke-linecap="round" stroke-linejoin="round"/>
</svg>
