<svg width="20" height="22" viewBox="0 0 20 22" fill="none" xmlns="http://www.w3.org/2000/svg">
<path d="M1.82501 5.65003H3.70835M3.70835 5.65003H18.775M3.70835 5.65003L3.70835 18.8334C3.70835 19.3329 3.90677 19.8119 4.25996 20.1651C4.61315 20.5183 5.09219 20.7167 5.59168 20.7167H15.0083C15.5078 20.7167 15.9869 20.5183 16.3401 20.1651C16.6933 19.8119 16.8917 19.3329 16.8917 18.8334V5.65003M6.53335 5.65003V3.7667C6.53335 3.2672 6.73177 2.78817 7.08496 2.43498C7.43815 2.08178 7.91719 1.88336 8.41668 1.88336H12.1833C12.6828 1.88336 13.1619 2.08178 13.5151 2.43498C13.8683 2.78817 14.0667 3.2672 14.0667 3.7667V5.65003M8.41668 10.3584V16.0084M12.1833 10.3584V16.0084" stroke="#1E1E1E" stroke-width="2.26" stroke-linecap="round" stroke-linejoin="round"/>
</svg>
