<svg width="47" height="47" viewBox="0 0 47 47" fill="none" xmlns="http://www.w3.org/2000/svg">
<path d="M20.0833 23.5H23.5V32.6111H28.0556M23.5 14.3889H23.5228M27.0598 43.6886C29.711 43.2211 32.2441 42.236 34.5146 40.7895C36.7851 39.3431 38.7485 37.4636 40.2926 35.2583C41.8367 33.0531 42.9314 30.5653 43.5141 27.937C44.0967 25.3087 44.156 22.5914 43.6886 19.9402C43.2211 17.289 42.236 14.7558 40.7895 12.4854C39.3431 10.2149 37.4636 8.25151 35.2583 6.70738C33.0531 5.16326 30.5653 4.06861 27.937 3.48593C25.3087 2.90325 22.5914 2.84396 19.9402 3.31144C17.289 3.77892 14.7558 4.76401 12.4854 6.21048C10.2149 7.65694 8.2515 9.53645 6.70738 11.7417C5.16326 13.9469 4.06861 16.4347 3.48593 19.063C2.90325 21.6913 2.84396 24.4086 3.31144 27.0598C3.77892 29.711 4.76401 32.2442 6.21048 34.5146C7.65694 36.7851 9.53645 38.7485 11.7417 40.2926C13.9469 41.8367 16.4347 42.9314 19.063 43.5141C21.6913 44.0967 24.4086 44.156 27.0598 43.6886Z" stroke="#33363F" stroke-width="4.55556" stroke-linecap="round" stroke-linejoin="round"/>
</svg>
