<svg width="263" height="41" viewBox="0 0 263 41" fill="none" xmlns="http://www.w3.org/2000/svg">
<path d="M59.8187 14.328H62.3427L62.5951 14.5881V24.2117L64.6143 22.391L66.6335 21.0905L67.3907 20.8304H69.9146L71.9338 21.8708L73.1958 23.4314L73.953 25.2521L74.2054 28.6333V39.8175H69.6622L69.4098 30.9742L69.1574 27.0728L68.6526 25.2521L67.6431 24.7319H65.6239L63.6047 26.2925L62.8475 28.1131L62.5951 40.0776L58.3043 39.8175L58.0519 39.5574V14.5881L59.8187 14.328Z" fill="#D5C9EF"/>
<path d="M161.031 15.6284H170.622V33.8352L169.613 36.6963L168.351 38.2569L165.827 39.5573L165.069 39.8174H160.274L157.75 38.777L155.983 36.9564L154.721 34.0953V33.0549L157.245 32.5347L159.517 32.2746L160.526 34.6155L161.031 35.3958L163.555 35.6559L164.817 34.8756L165.322 34.0953L165.574 32.2746V19.79L161.031 19.5299V15.6284Z" fill="#090708"/>
<path d="M131.753 20.8304H133.772L137.053 21.8708L139.577 24.2116L140.082 25.7722L139.072 26.2924H135.791L134.277 24.9919L130.743 24.4717H129.481V26.2924L129.733 27.0727L134.277 28.3732L136.801 29.1535L139.072 30.7141L140.082 32.2746L140.334 33.315V35.3958L139.072 37.9968L137.305 39.5574L135.034 40.3377H131.248L127.209 39.2973L125.695 38.2569L124.938 36.9564L124.685 34.8756L124.938 34.3554L127.209 34.6155L128.724 35.3958L129.733 36.1761L132.005 36.6963H134.024L135.539 35.916L136.043 34.3554L135.791 33.5751L128.471 31.4944L126.957 30.7141L125.695 29.4136L125.19 28.3732V24.7318L126.2 23.1713L128.471 21.6107L129.986 21.0905L131.753 20.8304Z" fill="#D5C9EF"/>
<path d="M221.102 20.8304H225.897L228.674 21.8708L230.188 23.1713L231.198 24.7318V25.7722L230.188 26.0323H227.159L226.15 24.7318L225.393 24.4717H221.607L220.597 25.5121L221.102 27.0727L228.421 29.1535L229.936 30.1939L231.198 31.4944L231.703 33.0549V34.8756L231.198 36.4362L230.188 37.9968L228.169 39.2973L226.402 39.8175H220.849L218.325 39.0372L216.306 37.2165L215.549 34.8756L217.821 34.3554H219.335L220.092 35.1357L220.849 36.1761L221.859 36.4362H225.14L226.907 35.6559L227.159 33.8352L225.14 32.7948L220.092 31.4944L218.073 30.454L216.559 28.6333L216.306 28.1131V24.7318L217.316 22.9112L218.83 21.6107L221.102 20.8304Z" fill="#090708"/>
<path d="M95.1545 20.8304L98.4357 21.3506L100.455 22.391L102.222 24.4717L102.474 26.0323L101.717 26.2924H98.9405L96.6689 24.7318L94.3973 24.2116L92.1257 24.4717V26.8126L93.6401 27.5929L98.6881 28.8934L100.707 29.9338L102.474 31.7545L102.726 32.5347V35.916L101.717 37.7367L99.9501 39.2973L97.9309 40.0776H92.6305L89.6017 39.2973L88.0873 37.9968L87.5825 36.6963V34.3554L90.1065 34.6155L91.6209 35.6559L92.8829 36.4362L94.1449 36.6963H96.9213L98.4357 35.916L98.6881 33.8352V33.315L95.6593 32.7948L91.1161 31.4944L89.0969 30.1939L88.0873 28.8934L87.8349 28.1131V24.9919L88.5921 23.6914L90.6113 21.8708L92.6305 21.0905L95.1545 20.8304Z" fill="#D5C9EF"/>
<path d="M187.785 15.3683H190.057L191.319 15.6284L191.571 35.3958L203.939 35.6559V39.5574H186.523V15.6284L187.785 15.3683Z" fill="#090708"/>
<path d="M49.9751 16.6688H51.4895L51.7419 20.8304L54.5183 21.0905L54.7707 21.3506V24.4717L54.5183 24.7318H51.7419L51.9943 35.916L52.2467 36.1761L54.5183 36.4362L55.0231 36.6963V39.2973L54.7707 39.8175L53.7611 40.0776H49.4703L47.9559 39.0372L47.1987 37.7367L46.9463 36.6963L46.6939 24.9919L44.9271 24.4717L44.6747 21.8708L45.6843 21.0905L47.1987 20.8304L47.9559 18.2294L48.2083 17.189L49.9751 16.6688Z" fill="#D5C9EF"/>
<path d="M238.013 16.6688H240.284L240.537 17.189V21.0905H243.565L243.818 21.3506V24.2116L243.565 24.4717H240.789V35.3958L241.546 36.1761L243.818 36.4362L244.07 36.9564V39.0372L243.565 39.5574L242.556 39.8175H238.517L237.003 39.0372L235.993 37.4766L235.741 36.1761V24.2116L235.236 24.4717H233.722L233.469 23.9515V21.8708L233.722 21.0905L235.993 20.8304L237.508 16.9289L238.013 16.6688Z" fill="#090708"/>
<path d="M245.837 18.7496L247.099 19.0097L257.195 22.9112L262.495 24.992L263 25.5122V30.454L262.243 31.2343L253.409 34.6155L246.847 37.2165H245.837V33.5752L248.109 32.5348L258.962 28.1131L259.214 27.5929L256.942 27.0727L248.361 23.6915L246.089 22.6511L245.837 22.391V18.7496Z" fill="#090708"/>
<path d="M42.1507 19.0097H43.1603V21.3506L42.6555 22.9112L39.122 24.7318L34.3264 26.5525L30.0356 27.853V28.3732L36.598 30.9742L43.1603 33.8352V37.4766L41.8983 37.2165L34.074 34.0953L27.2592 31.4944L26.2496 30.9742L25.9972 30.454V25.5121L31.0452 23.4314L42.1507 19.0097Z" fill="#D5C9EF"/>
<path d="M207.22 21.0905H212.015V39.5573H207.22V21.0905Z" fill="#090708"/>
<path d="M78.4963 21.0905H82.7871L83.0395 21.3506V40.0775H80.7679L78.7487 39.8174L78.4963 39.5573V21.0905Z" fill="#D5C9EF"/>
<path d="M116.356 21.0905H120.647L120.899 27.3328V39.5573L119.637 40.0775H117.113L116.356 39.8174L116.104 39.0371L116.356 21.0905Z" fill="#D5C9EF"/>
<path d="M174.408 28.3732H182.99V32.5348H174.408V28.3732Z" fill="#090708"/>
<path d="M207.22 14.328H212.015V17.7093L211.763 17.9694H207.472L207.22 17.7093V14.328Z" fill="#090708"/>
<path d="M79.0011 14.5881H82.7871L83.0395 14.8482V17.7092L82.7871 17.9693H78.7487L78.4963 16.9289L78.7487 14.8482L79.0011 14.5881Z" fill="#D7CCF0"/>
<path d="M116.609 14.5881H120.395L120.647 14.8482V17.7092L120.395 17.9693L118.628 18.2294H116.609L116.356 17.9693L116.609 14.5881Z" fill="#D6CAEF"/>
<path d="M0.504799 0.282715L2.77639 0.542812L3.78599 0.802909V1.8433L3.02879 2.10339L0 1.5832V0.802909L0.504799 0.282715Z" fill="#F6F4FB"/>
</svg>
